<?xml version="1.0" encoding="utf-8"?>
<!-- Generator: Adobe Illustrator 27.5.0, SVG Export Plug-In . SVG Version: 6.00 Build 0)  -->
<svg version="1.1" xmlns="http://www.w3.org/2000/svg" xmlns:xlink="http://www.w3.org/1999/xlink" x="0px" y="0px"
	 viewBox="0 0 500 500" style="enable-background:new 0 0 500 500;" xml:space="preserve">
<g id="Background_Complete">
	<g>
		<rect x="416.779" y="398.494" style="fill:#EBEBEB;" width="33.122" height="0.25"/>
		<rect x="322.527" y="401.208" style="fill:#EBEBEB;" width="8.693" height="0.25"/>
		<rect x="396.586" y="389.208" style="fill:#EBEBEB;" width="19.192" height="0.25"/>
		<rect x="52.459" y="390.888" style="fill:#EBEBEB;" width="43.193" height="0.25"/>
		<rect x="104.556" y="390.888" style="fill:#EBEBEB;" width="6.333" height="0.25"/>
		<rect x="131.471" y="395.111" style="fill:#EBEBEB;" width="93.676" height="0.25"/>
		<path style="fill:#EBEBEB;" d="M237.014,337.8H43.915c-3.147,0-5.708-2.561-5.708-5.708V60.66c0-3.147,2.561-5.708,5.708-5.708
			h193.099c3.146,0,5.707,2.561,5.707,5.708v271.432C242.721,335.239,240.16,337.8,237.014,337.8z M43.915,55.203
			c-3.01,0-5.458,2.448-5.458,5.458v271.432c0,3.01,2.448,5.458,5.458,5.458h193.099c3.009,0,5.457-2.448,5.457-5.458V60.66
			c0-3.009-2.448-5.458-5.457-5.458H43.915z"/>
		<path style="fill:#EBEBEB;" d="M453.31,337.8H260.212c-3.147,0-5.707-2.561-5.707-5.708V60.66c0-3.147,2.561-5.708,5.707-5.708
			H453.31c3.148,0,5.708,2.561,5.708,5.708v271.432C459.019,335.239,456.458,337.8,453.31,337.8z M260.212,55.203
			c-3.009,0-5.457,2.448-5.457,5.458v271.432c0,3.01,2.448,5.458,5.457,5.458H453.31c3.01,0,5.458-2.448,5.458-5.458V60.66
			c0-3.009-2.448-5.458-5.458-5.458H260.212z"/>
		<rect y="382.398" style="fill:#EBEBEB;" width="500" height="0.25"/>
	</g>
	<g>
		<path style="fill:none;stroke:#263238;stroke-width:3;stroke-miterlimit:10;" d="M259.519,275.009
			c0,2.385-1.933,4.318-4.318,4.318c-2.385,0-4.318-1.933-4.318-4.318c0-2.385,1.933-4.318,4.318-4.318
			C257.586,270.691,259.519,272.624,259.519,275.009z"/>
		
			<line style="fill:none;stroke:#263238;stroke-width:3;stroke-miterlimit:10;" x1="258.175" y1="278.13" x2="265.066" y2="285.03"/>
	</g>
	<g>
		<g>
			
				<ellipse transform="matrix(0.1602 -0.9871 0.9871 0.1602 246.6414 498.0566)" style="fill:#E0E0E0;" cx="416.018" cy="104.082" rx="29.982" ry="29.982"/>
			<g>
				<g>
					<path style="fill:#FFFFFF;" d="M416.103,134.732c-16.903,0-30.656-13.753-30.656-30.656c0-16.904,13.753-30.657,30.656-30.657
						v1.349c-16.16,0-29.307,13.147-29.307,29.308c0,16.16,13.147,29.307,29.307,29.307V134.732z"/>
				</g>
				<g>
					<g>
						<g>
							<path style="fill:#FFFFFF;" d="M416.103,134.732v-1.349c16.16,0,29.308-13.147,29.308-29.307
								c0-16.16-13.148-29.308-29.308-29.308v-1.349c16.904,0,30.657,13.753,30.657,30.657
								C446.76,120.979,433.008,134.732,416.103,134.732z"/>
						</g>
						<g>
							<g>
								<path style="fill:#FFFFFF;" d="M431.769,104.082h-1.349c0-9.936-5.042-23.231-14.68-29.414l0.727-1.136
									C426.513,79.978,431.769,93.78,431.769,104.082z"/>
							</g>
							<g>
								<path style="fill:#FFFFFF;" d="M416.467,133.717l-0.727-1.136c9.638-6.183,14.68-19.477,14.68-29.414h1.349
									C431.769,113.47,426.513,127.272,416.467,133.717z"/>
							</g>
						</g>
						<g>
							<g>
								<path style="fill:#FFFFFF;" d="M401.788,104.076h-1.349c0-10.303,5.256-24.104,15.299-30.55l0.73,1.136
									C406.83,80.845,401.788,94.14,401.788,104.076z"/>
							</g>
							<g>
								<path style="fill:#FFFFFF;" d="M415.738,133.71c-10.044-6.446-15.299-20.248-15.299-30.55h1.349
									c0,9.936,5.042,23.23,14.68,29.414L415.738,133.71z"/>
							</g>
						</g>
						<g>
							<rect x="415.429" y="74.093" style="fill:#FFFFFF;" width="1.349" height="59.964"/>
						</g>
					</g>
				</g>
				<g>
					<g>
						<rect x="390.726" y="87.43" style="fill:#FFFFFF;" width="50.756" height="1.349"/>
					</g>
					<g>
						<rect x="386.135" y="103.912" style="fill:#FFFFFF;" width="59.937" height="1.349"/>
					</g>
					<g>
						<rect x="391.397" y="120.379" style="fill:#FFFFFF;" width="49.415" height="1.349"/>
					</g>
				</g>
			</g>
		</g>
		<g>
			<g>
				<path style="fill:#E0E0E0;" d="M95.594,93.009c0-2.069-0.305-4.07-0.88-5.951l5.221-4.593l-3.287-5.695l-6.589,2.229
					c-2.727-2.91-6.29-5.023-10.307-5.956l-1.368-6.817h-6.575l-1.363,6.817c-4.017,0.933-7.585,3.046-10.312,5.956l-6.589-2.229
					l-3.287,5.695l5.221,4.593c-0.57,1.881-0.88,3.882-0.88,5.951c0,2.074,0.309,4.071,0.88,5.956l-5.221,4.588l3.287,5.695
					l6.589-2.229c2.727,2.91,6.294,5.023,10.312,5.961l1.363,6.816h6.575l1.368-6.816c4.017-0.938,7.58-3.05,10.307-5.961
					l6.589,2.229l3.287-5.695l-5.221-4.588C95.289,97.08,95.594,95.083,95.594,93.009z M75.096,104.075
					c-5.883,0-10.65-4.771-10.65-10.655c0-5.883,4.767-10.655,10.65-10.655c5.883,0,10.655,4.771,10.655,10.655
					C85.751,99.304,80.98,104.075,75.096,104.075z"/>
			</g>
			<g>
				<path style="fill:#E0E0E0;" d="M123.785,121.344c0-1.576-0.232-3.1-0.67-4.532l3.976-3.497l-2.503-4.336l-5.018,1.697
					c-2.076-2.216-4.789-3.825-7.849-4.535l-1.042-5.191h-5.007l-1.038,5.191c-3.059,0.71-5.776,2.319-7.852,4.535l-5.018-1.697
					l-2.503,4.336l3.976,3.497c-0.434,1.432-0.67,2.956-0.67,4.532c0,1.579,0.236,3.1,0.67,4.535l-3.976,3.494l2.503,4.337
					l5.018-1.697c2.076,2.216,4.793,3.825,7.852,4.539l1.038,5.191h5.007l1.042-5.191c3.059-0.714,5.772-2.323,7.849-4.539
					l5.018,1.697l2.503-4.337l-3.976-3.494C123.553,124.443,123.785,122.923,123.785,121.344z M108.177,129.77
					c-4.48,0-8.11-3.633-8.11-8.114c0-4.48,3.63-8.114,8.11-8.114c4.48,0,8.114,3.633,8.114,8.114
					C116.29,126.137,112.657,129.77,108.177,129.77z"/>
			</g>
		</g>
		<g>
			<polygon style="fill:#EBEBEB;" points="198.613,95.555 201.262,90.175 203.921,95.55 209.856,96.408 205.565,100.598 
				206.584,106.507 201.273,103.721 195.967,106.516 196.976,100.605 192.678,96.422 			"/>
			<polygon style="fill:#EBEBEB;" points="222.779,95.555 225.429,90.175 228.087,95.55 234.022,96.408 229.732,100.598 
				230.75,106.507 225.44,103.721 220.134,106.516 221.143,100.605 216.845,96.422 			"/>
			<polygon style="fill:#EBEBEB;" points="246.945,95.555 249.595,90.175 252.253,95.55 258.189,96.408 253.898,100.598 
				254.917,106.507 249.606,103.721 244.3,106.516 245.309,100.605 241.011,96.422 			"/>
			<polygon style="fill:#EBEBEB;" points="271.112,95.555 273.761,90.175 276.42,95.55 282.355,96.408 278.064,100.598 
				279.083,106.507 273.772,103.721 268.467,106.516 269.475,100.605 265.178,96.422 			"/>
			<polygon style="fill:#EBEBEB;" points="295.278,95.555 297.928,90.175 300.586,95.55 306.522,96.408 302.231,100.598 
				303.25,106.507 297.939,103.721 292.633,106.516 293.642,100.605 289.344,96.422 			"/>
		</g>
	</g>
</g>
<g id="Background_Simple" style="display:none;">
	<g style="display:inline;">
		<path style="fill:#407BFF;" d="M228.445,175.776c-17.906,3.32-49.326-23.495-65.615-31.638
			c-41.1-20.546-95.793-13.556-105.071,48.267c-12.684,84.52,89.748,203.367,227.931,188.238
			c69.8-7.642,136.702-57.602,153.119-131.778c29.832-134.79-96.901-167.857-144.582-143.023
			C249.574,129.098,252.046,171.4,228.445,175.776z"/>
		<path style="opacity:0.9;fill:#FFFFFF;" d="M228.445,175.776c-17.906,3.32-49.326-23.495-65.615-31.638
			c-41.1-20.546-95.793-13.556-105.071,48.267c-12.684,84.52,89.748,203.367,227.931,188.238
			c69.8-7.642,136.702-57.602,153.119-131.778c29.832-134.79-96.901-167.857-144.582-143.023
			C249.574,129.098,252.046,171.4,228.445,175.776z"/>
	</g>
</g>
<g id="Shadow">
	<ellipse id="_x3C_Path_x3E__1_" style="fill:#F5F5F5;" cx="245.178" cy="412.391" rx="193.889" ry="11.323"/>
</g>
<g id="Device">
	<path style="fill:none;stroke:#263238;stroke-width:2;stroke-miterlimit:10;" d="M328.239,350.017"/>
	<g>
		<g>
			<g>
				<g>
					<path style="fill:#263238;" d="M179.664,402.431l-0.201,2.297c-0.026,0.294,0.01,0.579,0.091,0.838c0,0,0,0,0.008,0.009
						c0.041,0.121,0.091,0.242,0.159,0.354s0.145,0.216,0.24,0.319c0.078,0.095,0.182,0.19,0.296,0.268
						c0.316,0.233,0.719,0.371,1.168,0.371h82.392c0.199,0,0.391-0.026,0.586-0.086c0.133-0.043,0.25-0.095,0.376-0.155
						c0.289-0.147,0.551-0.371,0.755-0.63c0.078-0.104,0.148-0.216,0.211-0.337c0.125-0.242,0.199-0.501,0.223-0.777l0.193-2.211
						c0.024-0.276-0.005-0.535-0.087-0.777c-0.041-0.121-0.092-0.233-0.152-0.337c-0.159-0.259-0.381-0.484-0.644-0.63
						c-0.116-0.061-0.224-0.112-0.349-0.155c-0.185-0.061-0.372-0.086-0.571-0.086h-20.492c-0.268,0-0.525-0.026-0.762-0.078h-0.009
						c-0.101-0.026-0.203-0.043-0.295-0.078c-0.017,0-0.034-0.009-0.042-0.017c-0.008,0-0.017,0-0.025-0.009
						c-0.109-0.035-0.21-0.069-0.318-0.121c-0.1-0.035-0.2-0.086-0.289-0.147c-0.141-0.069-0.279-0.164-0.401-0.259
						c-0.153-0.121-0.305-0.259-0.431-0.406c-0.07-0.086-0.149-0.173-0.21-0.268c-0.054-0.069-0.1-0.138-0.146-0.207
						c-0.015-0.026-0.03-0.052-0.045-0.078c-0.009,0-0.008-0.009-0.007-0.017c-0.061-0.095-0.104-0.19-0.147-0.294
						c-0.044-0.086-0.08-0.173-0.115-0.268c-0.007-0.017-0.013-0.043-0.021-0.061c-0.006-0.026-0.013-0.052-0.02-0.069
						c-0.007-0.017-0.014-0.034-0.014-0.043c-0.028-0.078-0.047-0.156-0.057-0.233c-0.025-0.112-0.049-0.224-0.056-0.345
						c-0.008-0.009-0.007-0.017-0.007-0.026c-0.008-0.104-0.016-0.216-0.024-0.32c0.001-0.112,0.002-0.216,0.011-0.32l0.007-0.078
						c0.001-0.104,0.019-0.216,0.037-0.319c0.018-0.112,0.044-0.216,0.072-0.328l0.001-0.009l8.06-30.924l1.547-5.933l1.21-4.655
						h-46.796l-2.514,4.655l-3.196,5.933l-18.203,33.748c-0.062,0.121-0.124,0.233-0.187,0.354
						c-0.001,0.017-0.002,0.026-0.011,0.035c-0.064,0.138-0.118,0.268-0.183,0.406c-0.055,0.138-0.11,0.276-0.158,0.423
						c-0.034,0.095-0.068,0.181-0.093,0.276C179.84,401.214,179.718,401.818,179.664,402.431z"/>
					<path style="opacity:0.2;fill:#FFFFFF;" d="M266.162,402.685l-0.194,2.22c-0.096,1.099-1.055,1.98-2.153,1.98h-82.383
						c-1.19,0-2.078-0.973-1.975-2.152l0.201-2.301c0.053-0.607,0.174-1.213,0.364-1.808c0.171-0.515,0.375-1.018,0.635-1.499
						l23.919-44.327h46.8l-10.82,41.512c-0.068,0.252-0.111,0.492-0.121,0.732c-0.118,1.74,1.01,3.239,2.662,3.582
						c0.247,0.057,0.497,0.08,0.771,0.08h20.487C265.454,400.705,266.257,401.597,266.162,402.685z"/>
					<g>
						<g>
							<path style="fill:#263238;" d="M178.015,399.129l23.914-44.335h2.649l-23.914,44.335c-0.56,1.038-0.902,2.165-1.001,3.305
								l-0.201,2.297c-0.104,1.19,0.776,2.154,1.966,2.154h-2.649c-1.19,0-2.07-0.964-1.966-2.154l0.201-2.297
								C177.113,401.294,177.455,400.167,178.015,399.129z"/>
						</g>
					</g>
					<polygon style="opacity:0.3;" points="204.578,354.794 251.371,354.794 248.61,365.389 198.863,365.389 					"/>
				</g>
				<g>
					<g>
						<g>
							<path style="fill:#263238;" d="M125.183,207.881l0.004,128.67v15.596c0.001,4.033,3.264,7.306,7.297,7.306h199.653
								c4.024,0,7.298-3.273,7.297-7.306l0-15.596l-0.004-128.67c0.008-4.033-3.265-7.297-7.298-7.297H132.488
								c-1.667,0-3.21,0.561-4.441,1.503c-0.176,0.138-0.352,0.276-0.504,0.432c-0.488,0.449-0.921,0.959-1.265,1.528
								c-0.24,0.371-0.438,0.769-0.596,1.192C125.36,206.059,125.187,206.949,125.183,207.881z"/>
						</g>
						<path style="fill:#407BFF;" d="M339.433,336.548l0,15.601c0,4.031-3.268,7.299-7.299,7.299H132.485
							c-4.031,0-7.299-3.268-7.299-7.299v-15.601H339.433z"/>
						<path style="opacity:0.6;fill:#FFFFFF;" d="M339.433,336.548l0,15.601c0,4.031-3.268,7.299-7.299,7.299H132.485
							c-4.031,0-7.299-3.268-7.299-7.299v-15.601H339.433z"/>
					</g>
					<path style="fill:#407BFF;" d="M132.618,332.142h199.384c2.186,0,3.958-1.772,3.958-3.958l0-119.236
						c0-2.186-1.772-3.958-3.958-3.958H132.618c-2.186,0-3.958,1.772-3.958,3.958v119.236
						C128.66,330.37,130.432,332.142,132.618,332.142z"/>
					<g>
						<path style="fill:#263238;" d="M128.071,200.584h4.415c-4.031,0-7.299,3.268-7.299,7.299l0,144.267
							c0,4.031,3.268,7.299,7.299,7.299h-4.414c-4.031,0-7.299-3.268-7.299-7.299V207.883
							C120.772,203.852,124.039,200.584,128.071,200.584z"/>
					</g>
					<g style="opacity:0.2;">
						<path style="fill:#FFFFFF;" d="M128.071,200.584h4.415c-4.031,0-7.299,3.268-7.299,7.299l0,144.267
							c0,4.031,3.268,7.299,7.299,7.299h-4.414c-4.031,0-7.299-3.268-7.299-7.299V207.883
							C120.772,203.852,124.039,200.584,128.071,200.584z"/>
					</g>
					<path style="opacity:0.5;fill:#FFFFFF;" d="M337.176,280.921c-5.132-0.986-13.278,2.334-14.799,7.334
						c0.383-3.036-1.201-6.229-3.85-7.761c-2.649-1.532-6.115-2.616-8.555-0.769c2.444-9.761-1.241-20.786-9.064-27.115
						c-7.822-6.329-19.225-7.016-28.262-2.589c2.69-5.086,2.913-11.408,0.586-16.67c-2.327-5.262-6.487-8.844-11.919-10.742
						c-12.496-4.365-26.056-5.651-39.15-3.712c-7.609,1.127-15.37,3.505-20.903,8.848c-5.532,5.343-6.965,14.969-3.285,21.723
						c-8.514-2.881-18.577-0.497-24.894,5.898c-6.317,6.395-8.413,16.343-5.429,24.821c-2.337-1.419-5.411-1.534-7.848-0.293
						c-2.436,1.241-4.131,3.702-4.357,6.426c-3.184-4.195-8.47-6.707-13.734-6.526c-5.264,0.18-10.365,3.048-13.255,7.451v44.898
						h207.5L337.176,280.921z"/>
					<path style="fill:#FFFFFF;" d="M290.927,280.91h-106.92c-5.44,0-9.85-4.41-9.85-9.85v0c0-5.44,4.41-9.85,9.85-9.85h106.92
						c5.44,0,9.85,4.41,9.85,9.85v0C300.777,276.5,296.367,280.91,290.927,280.91z"/>
					<g>
						<path style="fill:none;stroke:#263238;stroke-width:3;stroke-miterlimit:10;" d="M187.719,269.009
							c0,2.385-1.933,4.318-4.318,4.318c-2.385,0-4.318-1.933-4.318-4.318c0-2.385,1.933-4.318,4.318-4.318
							C185.786,264.691,187.719,266.624,187.719,269.009z"/>
						
							<line style="fill:none;stroke:#263238;stroke-width:3;stroke-miterlimit:10;" x1="186.375" y1="272.13" x2="193.266" y2="279.03"/>
					</g>
					<g style="opacity:0.1;">
						<polygon style="fill:#FFFFFF;" points="268.466,204.99 276.135,204.99 292.038,332.142 284.368,332.142 						"/>
						<polygon style="fill:#FFFFFF;" points="299.788,332.142 283.886,204.99 312.699,204.99 328.602,332.142 						"/>
					</g>
				</g>
			</g>
			<path style="opacity:0.2;fill:#FFFFFF;" d="M193.874,402.7l-0.185,2.109c-0.1,1.146,0.748,2.076,1.894,2.076h68.23
				c1.096,0,2.061-0.888,2.157-1.984l0.193-2.212c0.096-1.095-0.714-1.983-1.81-1.983h-20.492c-0.265,0-0.518-0.027-0.76-0.082
				h-46.97C194.985,400.624,193.975,401.553,193.874,402.7z"/>
			<path style="opacity:0.2;" d="M180.027,400.624h63.075c-1.661-0.338-2.782-1.837-2.666-3.583H181.95L180.027,400.624z"/>
		</g>
		<g>
			<path style="fill:#263238;" d="M212.269,249.39l1.382-3.065c1.483,1.08,3.694,1.834,5.805,1.834c2.413,0,3.393-0.804,3.393-1.885
				c0-3.292-10.228-1.03-10.228-7.564c0-2.99,2.413-5.479,7.414-5.479c2.211,0,4.473,0.528,6.107,1.559l-1.257,3.091
				c-1.633-0.93-3.317-1.382-4.875-1.382c-2.413,0-3.343,0.904-3.343,2.01c0,3.242,10.229,1.006,10.229,7.464
				c0,2.94-2.438,5.454-7.464,5.454C216.642,251.426,213.827,250.597,212.269,249.39z"/>
			<path style="fill:#263238;" d="M243.308,247.857v3.267h-13.621v-17.592h13.294v3.267h-9.249v3.82h8.168v3.167h-8.168v4.071
				H243.308z"/>
			<path style="fill:#263238;" d="M245.397,242.328c0-5.227,4.071-9.098,9.626-9.098c5.529,0,9.625,3.845,9.625,9.098
				c0,5.252-4.096,9.098-9.625,9.098C249.468,251.426,245.397,247.556,245.397,242.328z M260.526,242.328
				c0-3.343-2.362-5.63-5.503-5.63c-3.142,0-5.504,2.287-5.504,5.63c0,3.343,2.362,5.629,5.504,5.629
				C258.164,247.957,260.526,245.671,260.526,242.328z"/>
		</g>
		<g>
			<path style="opacity:0.8;fill:#FFFFFF;" d="M232.223,310.459h-42.197c-2.127,0-3.851-1.724-3.851-3.851v-8.919
				c0-2.127,1.724-3.851,3.851-3.851h42.197c2.127,0,3.851,1.724,3.851,3.851v8.919C236.074,308.735,234.35,310.459,232.223,310.459
				z"/>
			<path style="opacity:0.8;fill:#FFFFFF;" d="M293.415,310.459h-42.197c-2.127,0-3.851-1.724-3.851-3.851v-8.919
				c0-2.127,1.724-3.851,3.851-3.851h42.197c2.127,0,3.851,1.724,3.851,3.851v8.919
				C297.266,308.735,295.542,310.459,293.415,310.459z"/>
		</g>
		<g>
			<g>
				<g>
					<path style="fill:#407BFF;" d="M209.925,210.656l24.785-44.048c0.382-0.679,1.36-0.679,1.742,0l24.785,44.048
						c0.375,0.666-0.107,1.489-0.871,1.489h-49.57C210.031,212.145,209.55,211.322,209.925,210.656z"/>
					<path style="opacity:0.3;" d="M209.925,210.656l24.785-44.048c0.382-0.679,1.36-0.679,1.742,0l24.785,44.048
						c0.375,0.666-0.107,1.489-0.871,1.489h-49.57C210.031,212.145,209.55,211.322,209.925,210.656z"/>
				</g>
				<g>
					<g>
						<g>
							<path style="fill:#263238;" d="M223.795,218.726l-1.204-4.941h-4.339l-1.204,4.941
								C219.133,219.59,221.546,219.658,223.795,218.726z"/>
							<path style="opacity:0.2;fill:#FFFFFF;" d="M218.252,213.786c0,0-0.181,0.742-0.282,1.157
								c1.562,0.453,3.258,0.48,4.903,0.001l-0.282-1.158H218.252z"/>
							<path style="opacity:0.4;fill:#FFFFFF;" d="M217.668,216.184c-0.076,0.313-0.153,0.629-0.226,0.928
								c1.891,0.585,3.961,0.619,5.96-0.001l-0.226-0.928C221.323,216.549,219.457,216.536,217.668,216.184z"/>
						</g>
						<g>
							<path style="fill:#407BFF;" d="M225.003,213.436c-3.055,1.265-6.333,1.173-9.164,0v-36.695c0-4.32,1.751-8.231,4.582-11.062
								c2.831,2.831,4.582,6.742,4.582,11.062V213.436z"/>
							<g>
								<path style="fill:#407BFF;" d="M215.84,176.741c0,0,0,30.853,0,34.592c2.882,0.996,6.096,1.063,9.164,0.001
									c0-3.737,0-34.593,0-34.593c0-4.32-1.751-8.231-4.582-11.062C217.591,168.51,215.84,172.421,215.84,176.741z"/>
								<path style="opacity:0.4;fill:#FFFFFF;" d="M215.84,176.741c0,0,0,30.853,0,34.592c2.882,0.996,6.096,1.063,9.164,0.001
									c0-3.737,0-34.593,0-34.593c0-4.32-1.751-8.231-4.582-11.062C217.591,168.51,215.84,172.421,215.84,176.741z"/>
							</g>
							<g>
								<path style="fill:#407BFF;" d="M215.84,176.741c0,0,0,15.62,0,25.979c2.923,0.834,6.088,0.88,9.164,0.002
									c0-10.359,0-25.98,0-25.98c0-4.32-1.751-8.231-4.582-11.062C217.591,168.51,215.84,172.421,215.84,176.741z"/>
								<path style="opacity:0.6;fill:#FFFFFF;" d="M215.84,176.741c0,0,0,15.62,0,25.979c2.923,0.834,6.088,0.88,9.164,0.002
									c0-10.359,0-25.98,0-25.98c0-4.32-1.751-8.231-4.582-11.062C217.591,168.51,215.84,172.421,215.84,176.741z"/>
							</g>
							<g>
								<path style="fill:#407BFF;" d="M215.84,176.741c0,0,0,6.331,0,13.604c2.923,0.834,6.088,0.881,9.164,0.002
									c0-7.274,0-13.606,0-13.606c0-4.32-1.751-8.231-4.582-11.062C217.591,168.51,215.84,172.421,215.84,176.741z"/>
								<path style="opacity:0.8;fill:#FFFFFF;" d="M215.84,176.741c0,0,0,6.331,0,13.604c2.923,0.834,6.088,0.881,9.164,0.002
									c0-7.274,0-13.606,0-13.606c0-4.32-1.751-8.231-4.582-11.062C217.591,168.51,215.84,172.421,215.84,176.741z"/>
							</g>
							<g>
								<path style="fill:#407BFF;" d="M215.84,176.741c0,0,0,0.581,0,1.587c2.923,0.834,6.088,0.881,9.164,0.002
									c0-1.007,0-1.589,0-1.589c0-4.32-1.751-8.231-4.582-11.062C217.591,168.51,215.84,172.421,215.84,176.741z"/>
								<path style="opacity:0.4;fill:#FFFFFF;" d="M215.84,176.741c0,0,0,0.581,0,1.587c2.923,0.834,6.088,0.881,9.164,0.002
									c0-1.007,0-1.589,0-1.589c0-4.32-1.751-8.231-4.582-11.062C217.591,168.51,215.84,172.421,215.84,176.741z"/>
							</g>
						</g>
					</g>
					<g>
						<g>
							<path style="fill:#263238;" d="M253.271,218.726l-1.204-4.941h-4.339l-1.204,4.941
								C248.609,219.59,251.022,219.658,253.271,218.726z"/>
							<path style="opacity:0.2;fill:#FFFFFF;" d="M247.728,213.786c0,0-0.181,0.742-0.282,1.157
								c1.562,0.453,3.257,0.48,4.903,0.001l-0.282-1.158H247.728z"/>
							<path style="opacity:0.4;fill:#FFFFFF;" d="M247.144,216.184c-0.076,0.313-0.153,0.629-0.226,0.928
								c1.891,0.585,3.961,0.619,5.96-0.001l-0.226-0.928C250.8,216.549,248.933,216.536,247.144,216.184z"/>
						</g>
						<g>
							<path style="fill:#407BFF;" d="M254.48,213.436c-3.055,1.265-6.333,1.173-9.164,0v-36.695c0-4.32,1.751-8.231,4.582-11.062
								c2.831,2.831,4.582,6.742,4.582,11.062V213.436z"/>
							<g>
								<path style="fill:#407BFF;" d="M245.316,176.741c0,0,0,30.853,0,34.592c2.882,0.996,6.096,1.063,9.164,0.001
									c0-3.737,0-34.593,0-34.593c0-4.32-1.751-8.231-4.582-11.062C247.067,168.51,245.316,172.421,245.316,176.741z"/>
								<path style="opacity:0.4;fill:#FFFFFF;" d="M245.316,176.741c0,0,0,30.853,0,34.592c2.882,0.996,6.096,1.063,9.164,0.001
									c0-3.737,0-34.593,0-34.593c0-4.32-1.751-8.231-4.582-11.062C247.067,168.51,245.316,172.421,245.316,176.741z"/>
							</g>
							<g>
								<path style="fill:#407BFF;" d="M245.316,176.741c0,0,0,15.62,0,25.979c2.923,0.834,6.088,0.88,9.164,0.002
									c0-10.359,0-25.98,0-25.98c0-4.32-1.751-8.231-4.582-11.062C247.067,168.51,245.316,172.421,245.316,176.741z"/>
								<path style="opacity:0.6;fill:#FFFFFF;" d="M245.316,176.741c0,0,0,15.62,0,25.979c2.923,0.834,6.088,0.88,9.164,0.002
									c0-10.359,0-25.98,0-25.98c0-4.32-1.751-8.231-4.582-11.062C247.067,168.51,245.316,172.421,245.316,176.741z"/>
							</g>
							<g>
								<path style="fill:#407BFF;" d="M245.316,176.741c0,0,0,6.331,0,13.604c2.923,0.834,6.088,0.881,9.164,0.002
									c0-7.274,0-13.606,0-13.606c0-4.32-1.751-8.231-4.582-11.062C247.067,168.51,245.316,172.421,245.316,176.741z"/>
								<path style="opacity:0.8;fill:#FFFFFF;" d="M245.316,176.741c0,0,0,6.331,0,13.604c2.923,0.834,6.088,0.881,9.164,0.002
									c0-7.274,0-13.606,0-13.606c0-4.32-1.751-8.231-4.582-11.062C247.067,168.51,245.316,172.421,245.316,176.741z"/>
							</g>
							<g>
								<path style="fill:#407BFF;" d="M245.316,176.741c0,0,0,0.581,0,1.587c2.923,0.834,6.088,0.881,9.164,0.002
									c0-1.007,0-1.589,0-1.589c0-4.32-1.751-8.231-4.582-11.062C247.067,168.51,245.316,172.421,245.316,176.741z"/>
								<path style="opacity:0.4;fill:#FFFFFF;" d="M245.316,176.741c0,0,0,0.581,0,1.587c2.923,0.834,6.088,0.881,9.164,0.002
									c0-1.007,0-1.589,0-1.589c0-4.32-1.751-8.231-4.582-11.062C247.067,168.51,245.316,172.421,245.316,176.741z"/>
							</g>
						</g>
					</g>
				</g>
				<g>
					<g>
						<path style="fill:#263238;" d="M240.606,221.564l-1.944-7.976h-7.005l-1.944,7.976
							C233.079,222.958,236.975,223.068,240.606,221.564z"/>
						<path style="opacity:0.2;fill:#FFFFFF;" d="M231.657,213.588c0,0-0.292,1.198-0.455,1.867
							c2.522,0.732,5.259,0.774,7.915,0.002l-0.455-1.869H231.657z"/>
						<path style="opacity:0.4;fill:#FFFFFF;" d="M230.714,217.459c-0.123,0.506-0.247,1.016-0.365,1.499
							c3.052,0.945,6.395,1,9.622-0.001l-0.365-1.498C236.616,218.049,233.602,218.029,230.714,217.459z"/>
					</g>
					<g>
						<path style="fill:#407BFF;" d="M242.557,213.024c-4.931,2.043-10.223,1.893-14.794,0v-59.24
							c0-6.974,2.827-13.287,7.397-17.857c4.57,4.57,7.397,10.884,7.397,17.857L242.557,213.024z"/>
						<g>
							<path style="fill:#407BFF;" d="M227.763,153.784c0,0,0,49.809,0,55.844c4.653,1.608,9.841,1.716,14.794,0.001
								c0-6.033,0-55.846,0-55.846c0-6.974-2.827-13.287-7.397-17.857C230.59,140.496,227.763,146.81,227.763,153.784z"/>
							<path style="opacity:0.4;fill:#FFFFFF;" d="M227.763,153.784c0,0,0,49.809,0,55.844c4.653,1.608,9.841,1.716,14.794,0.001
								c0-6.033,0-55.846,0-55.846c0-6.974-2.827-13.287-7.397-17.857C230.59,140.496,227.763,146.81,227.763,153.784z"/>
						</g>
						<g>
							<path style="fill:#407BFF;" d="M227.763,153.784c0,0,0,25.217,0,41.94c4.719,1.346,9.828,1.421,14.794,0.003
								c0-16.723,0-41.942,0-41.942c0-6.974-2.827-13.287-7.397-17.857C230.59,140.496,227.763,146.81,227.763,153.784z"/>
							<path style="opacity:0.6;fill:#FFFFFF;" d="M227.763,153.784c0,0,0,25.217,0,41.94c4.719,1.346,9.828,1.421,14.794,0.003
								c0-16.723,0-41.942,0-41.942c0-6.974-2.827-13.287-7.397-17.857C230.59,140.496,227.763,146.81,227.763,153.784z"/>
						</g>
						<g>
							<path style="fill:#407BFF;" d="M227.763,153.784c0,0,0,10.22,0,21.962c4.719,1.346,9.828,1.422,14.794,0.003
								c0-11.743,0-21.965,0-21.965c0-6.974-2.827-13.287-7.397-17.857C230.59,140.496,227.763,146.81,227.763,153.784z"/>
							<path style="opacity:0.8;fill:#FFFFFF;" d="M227.763,153.784c0,0,0,10.22,0,21.962c4.719,1.346,9.828,1.422,14.794,0.003
								c0-11.743,0-21.965,0-21.965c0-6.974-2.827-13.287-7.397-17.857C230.59,140.496,227.763,146.81,227.763,153.784z"/>
						</g>
						<g>
							<path style="fill:#407BFF;" d="M227.763,153.784c0,0,0,0.937,0,2.562c4.719,1.346,9.828,1.422,14.794,0.003
								c0-1.626,0-2.564,0-2.564c0-6.974-2.827-13.287-7.397-17.857C230.59,140.496,227.763,146.81,227.763,153.784z"/>
							<path style="opacity:0.1;fill:#FFFFFF;" d="M227.763,153.784c0,0,0,0.937,0,2.562c4.719,1.346,9.828,1.422,14.794,0.003
								c0-1.626,0-2.564,0-2.564c0-6.974-2.827-13.287-7.397-17.857C230.59,140.496,227.763,146.81,227.763,153.784z"/>
						</g>
					</g>
					<g>
						<path style="fill:#407BFF;" d="M239.468,165.635c0,2.379-1.929,4.308-4.308,4.308c-2.379,0-4.308-1.929-4.308-4.308
							c0-2.379,1.929-4.308,4.308-4.308C237.539,161.326,239.468,163.255,239.468,165.635z"/>
						<g>
							<path style="fill:#407BFF;" d="M235.16,169.943c-2.27,0-4.125-1.756-4.292-3.983c-0.008,0.108-0.016,0.215-0.016,0.325
								c0,2.379,1.929,4.308,4.308,4.308c2.379,0,4.308-1.929,4.308-4.308c0-0.11-0.008-0.217-0.016-0.325
								C239.285,168.187,237.429,169.943,235.16,169.943z"/>
							<path style="opacity:0.3;" d="M235.16,169.943c-2.27,0-4.125-1.756-4.292-3.983c-0.008,0.108-0.016,0.215-0.016,0.325
								c0,2.379,1.929,4.308,4.308,4.308c2.379,0,4.308-1.929,4.308-4.308c0-0.11-0.008-0.217-0.016-0.325
								C239.285,168.187,237.429,169.943,235.16,169.943z"/>
						</g>
						<circle style="fill:#FFFFFF;" cx="235.16" cy="165.635" r="3.046"/>
						<g>
							<g>
								<path style="fill:#407BFF;" d="M235,168.665l1.247-5.868c-0.316-0.121-0.656-0.192-1.012-0.201l-1.244,5.851
									C234.304,168.577,234.645,168.646,235,168.665z"/>
								<path style="fill:#407BFF;" d="M236.136,168.506l1.085-5.103c-0.14-0.129-0.291-0.245-0.453-0.347l-1.187,5.582
									C235.773,168.612,235.957,168.567,236.136,168.506z"/>
							</g>
							<g style="opacity:0.7;">
								<path style="fill:#FFFFFF;" d="M235,168.665l1.247-5.868c-0.316-0.121-0.656-0.192-1.012-0.201l-1.244,5.851
									C234.304,168.577,234.645,168.646,235,168.665z"/>
								<path style="fill:#FFFFFF;" d="M236.136,168.506l1.085-5.103c-0.14-0.129-0.291-0.245-0.453-0.347l-1.187,5.582
									C235.773,168.612,235.957,168.567,236.136,168.506z"/>
							</g>
						</g>
					</g>
				</g>
			</g>
		</g>
	</g>
</g>
<g id="Character_1_">
	<g>
		<g>
			<g>
				<g>
					<path style="fill:#FAB27B;" d="M345.573,281.259l-1.151,0.247c-1.046,0.224-1.835,1.084-1.969,2.145l-0.102,0.81
						c-0.103,0.82,0.196,1.645,0.819,2.189c1.891,1.653,6.347,4.711,11.747,2.736l4.315-3.244l-0.71-5.824l-8.963-1.3
						c-0.545,0.021-1.068,0.219-1.49,0.564L345.573,281.259z"/>
					<polygon style="fill:#FAB27B;" points="359.232,286.143 371.197,285.54 369.348,279.031 358.522,280.318 					"/>
				</g>
				<path style="fill:#407BFF;" d="M366.361,279.078c-0.407,0.783-0.696,1.814-0.485,3.04c0.197,1.146,0.677,3.165,1.937,4.546l0,0
					c-2.02,0.024-4.007,0.513-5.806,1.43l-0.097,0.05c-6.241-4.265-2.636-9.316-2.636-9.316l0.41,0.059
					C361.898,279.18,364.138,279.248,366.361,279.078z"/>
				<g>
					<g>
						<path style="fill:#407BFF;" d="M390.868,284.451c-11.117,2.558-24.95,2.31-24.95,2.31c-0.488-0.828-0.644-1.698-0.591-2.545
							c0.105-1.866,0.352-4.195,1.034-5.137c0.729-1.008,5.462-1.438,5.462-1.438s9.284-4.311,11.045-5.72
							c1.741-1.403,1.694-7.978,1.363-12.334c-1.769-23.27,2.324-25.019,6.035-26.063
							C397.973,231.355,400.711,282.183,390.868,284.451z"/>
					</g>
				</g>
			</g>
			<g>
				<g>
					<path style="fill:#407BFF;" d="M314.684,289.441h31.076c1.012,0,1.467-0.82,1.017-1.832l-7.798-17.532
						c-0.45-1.012-1.635-1.832-2.647-1.832h-31.076c-1.012,0-1.467,0.82-1.017,1.832l7.798,17.532
						C312.487,288.621,313.672,289.441,314.684,289.441z"/>
					<path style="opacity:0.2;" d="M314.684,289.441h31.076c1.012,0,1.467-0.82,1.017-1.832l-7.798-17.532
						c-0.45-1.012-1.635-1.832-2.647-1.832h-31.076c-1.012,0-1.467,0.82-1.017,1.832l7.798,17.532
						C312.487,288.621,313.672,289.441,314.684,289.441z"/>
					<path style="fill:#407BFF;" d="M303.914,268.245h1.343c-1.012,0-1.467,0.82-1.017,1.832l7.798,17.532
						c0.45,1.012,1.635,1.832,2.647,1.832h-1.342c-1.012,0-2.197-0.82-2.647-1.832l-7.798-17.532
						C302.447,269.065,302.902,268.245,303.914,268.245z"/>
					<path style="opacity:0.4;" d="M303.914,268.245h1.343c-1.012,0-1.467,0.82-1.017,1.832l7.798,17.532
						c0.45,1.012,1.635,1.832,2.647,1.832h-1.342c-1.012,0-2.197-0.82-2.647-1.832l-7.798-17.532
						C302.447,269.065,302.902,268.245,303.914,268.245z"/>
				</g>
				<g>
					<polygon style="fill:#263238;" points="315.26,287.425 343.39,287.425 335.756,270.261 307.626,270.261 					"/>
					<polygon style="opacity:0.8;fill:#FFFFFF;" points="315.26,287.425 343.39,287.425 335.756,270.261 307.626,270.261 					"/>
				</g>
			</g>
			<g>
				<path style="fill:#263238;" d="M407.82,288.074c0,0,0.774,10.252,0.885,13.859c0.743,24.045-18.886,25.881-33.328,23.229
					l-52.291-14.621c-2.076,6.951-26.253,45.222-26.253,45.222l-12.71-7.298c0,0,13.178-31.595,21.684-53.58
					c4.857-12.552,44.385-3.871,58.942-1.289c4.425,1.193,3.572-5.717,3.572-5.717L407.82,288.074z"/>
				<polygon style="fill:#FAB27B;" points="293.587,355.044 288.734,363.135 279.679,358.63 284.389,349.418 				"/>
				<g>
					<path style="fill:#407BFF;" d="M274.862,356.97c-1.195-0.546-2.329-1.33-2.49-2.024c-0.068-0.394,0.121-0.788,0.47-0.982
						c0.281-0.19,0.626-0.264,0.961-0.205c1.806,0.293,4.283,3.741,4.391,3.893c0.061,0.086,0.062,0.201,0.002,0.287
						c-0.061,0.085-0.167,0.125-0.269,0.102C276.876,357.775,275.851,357.417,274.862,356.97z M274.19,354.402
						c-0.146-0.07-0.301-0.118-0.461-0.143c-0.205-0.055-0.422-0.012-0.592,0.114c-0.298,0.206-0.302,0.37-0.273,0.477
						c0.16,0.829,2.576,1.953,4.466,2.55C276.481,356.211,275.416,355.194,274.19,354.402z"/>
					<path style="fill:#407BFF;" d="M277.893,358.022c-0.036-0.005-0.068-0.024-0.091-0.052c-0.916-1.035-2.272-4.175-1.573-5.162
						c0.143-0.25,0.484-0.477,1.139-0.253c0.48,0.161,0.873,0.511,1.089,0.969c0.764,1.566-0.165,4.275-0.208,4.401
						c-0.032,0.085-0.107,0.146-0.196,0.159C277.994,358.085,277.937,358.063,277.893,358.022z M277.323,353.056l-0.125-0.071
						c-0.425-0.152-0.527,0-0.571,0.051c-0.357,0.625,0.412,2.947,1.28,4.196c0.384-1.141,0.41-2.374,0.072-3.53
						C277.845,353.415,277.612,353.185,277.323,353.056L277.323,353.056z"/>
					<path style="fill:#263238;" d="M279.523,357.146l10.49,4.798c0.395,0.181,0.613,0.611,0.523,1.037l-2.007,9.401
						c-0.172,0.835-0.988,1.373-1.824,1.201c-0.107-0.022-0.212-0.056-0.312-0.1c-3.751-1.795-7.019-3.54-11.73-5.687
						c-5.556-2.539-4.451-1.23-11.025-4.124c-3.959-1.748-2.633-6.551-0.864-6.008c8.077,2.532,9.925,0.589,14.121-0.797
						C277.776,356.634,278.711,356.733,279.523,357.146z"/>
				</g>
				<polygon style="opacity:0.2;" points="291.121,359.155 293.587,355.044 284.389,349.418 282.113,353.87 				"/>
				<path style="fill:#407BFF;" d="M298.847,354.999l-15.759-9.832c0,0-2.536,1.4-1.978,4.129l15.135,9.669
					C296.245,358.964,298.283,358.873,298.847,354.999z"/>
			</g>
			<g>
				<g>
					<polygon style="fill:#FAB27B;" points="320.409,395.288 318.505,404.258 308.76,402.979 310.177,393.024 					"/>
					<g>
						<path style="fill:#407BFF;" d="M303.809,402.975c-1.27-0.124-2.561-0.486-2.928-1.074c-0.186-0.341-0.138-0.762,0.122-1.051
							c0.198-0.264,0.492-0.44,0.818-0.492c1.753-0.302,5.118,2.084,5.266,2.19c0.083,0.06,0.121,0.165,0.092,0.264
							c-0.029,0.097-0.114,0.168-0.215,0.179C305.914,403.079,304.858,403.073,303.809,402.975z M302.379,400.828
							c-0.156-0.018-0.314-0.013-0.469,0.014c-0.205,0.014-0.392,0.122-0.508,0.292c-0.21,0.284-0.16,0.435-0.1,0.524
							c0.409,0.712,2.985,0.981,4.91,0.932C305.056,401.766,303.756,401.168,302.379,400.828z"/>
						<path style="fill:#407BFF;" d="M306.926,402.985c-0.035,0.007-0.07,0-0.1-0.019c-1.169-0.662-3.408-3.119-3.077-4.247
							c0.052-0.275,0.294-0.592,0.967-0.593c0.492-0.004,0.964,0.193,1.307,0.546c1.197,1.198,1.199,3.981,1.2,4.111
							c-0.002,0.088-0.052,0.168-0.13,0.208C307.039,403.01,306.979,403.008,306.926,402.985z M304.833,398.601l-0.137-0.026
							c-0.439-0.006-0.485,0.167-0.509,0.227c-0.13,0.687,1.31,2.578,2.503,3.452c-0.007-1.171-0.374-2.311-1.05-3.267
							C305.427,398.765,305.14,398.628,304.833,398.601L304.833,398.601z"/>
						<path style="fill:#263238;" d="M308.148,401.664l11.156,1.095c0.421,0.041,0.756,0.368,0.808,0.788l1.126,9.274
							c0.106,0.822-0.475,1.574-1.297,1.68c-0.105,0.013-0.212,0.016-0.318,0.007c-4.015-0.465-7.569-1.036-12.577-1.52
							c-5.909-0.578-4.479,0.276-11.435-0.307c-4.191-0.355-4.49-5.188-2.693-5.248c8.223-0.225,9.307-2.595,12.726-5.195
							C306.38,401.746,307.271,401.542,308.148,401.664z"/>
					</g>
					<polygon style="opacity:0.2;" points="309.432,398.256 319.609,399.054 320.409,395.288 310.177,393.024 					"/>
					<polygon style="fill:#263238;" points="323.296,391.739 323.012,392.873 308.081,391.694 308.24,390.56 					"/>
					<path style="fill:#407BFF;" d="M323.908,396.422l-3.673-0.329l-10.362-0.93l-3.345-0.306c-1.701-2.109-0.147-4.444-0.147-4.444
						l1.859,0.147l15.056,1.179l1.088,0.091C325.631,395.424,323.908,396.422,323.908,396.422z"/>
					<path style="fill:#263238;" d="M384.529,334.078c-13.514,1.19-44.669,1.689-48.887,1.076l-12.347,56.585l-15.056-1.179
						c0,0,1.595-48.93,8.231-69.159c5.335-16.262,90.757-12.89,90.757-12.89l0.306,4.58
						C408.123,328.874,399.994,332.706,384.529,334.078z"/>
					<path style="opacity:0.1;" d="M384.529,334.078c-13.514,1.19-44.669,1.689-48.887,1.076l-12.347,56.585l-15.056-1.179
						c0,0,1.595-48.93,8.231-69.159c5.335-16.262,90.757-12.89,90.757-12.89l0.306,4.58
						C408.123,328.874,399.994,332.706,384.529,334.078z"/>
					<path style="fill:#263238;" d="M316.232,327.309c0,0,0.011-0.102,0.045-0.272l-0.034,0.272
						C316.232,327.309,316.232,327.309,316.232,327.309z"/>
					<path style="fill:#263238;" d="M317.242,319.951l-0.148,1.111C317.094,321.062,317.105,320.665,317.242,319.951z"/>
				</g>
			</g>
			<g>
				<g>
					<polygon style="fill:#FAB27B;" points="365.057,231.593 369.209,237.653 378.544,229.674 372.712,222.508 					"/>
					<path style="opacity:0.2;" d="M367.136,234.457c1.807-2.643,0.984-6.757,0.984-6.757l-1.642,2.087l-1.421,1.806
						L367.136,234.457z"/>
					<path style="fill:#263238;" d="M349.1,218.24c0.202,0.591,0.676,0.961,1.069,0.82c0.393-0.141,0.565-0.768,0.352-1.337
						c-0.212-0.569-0.676-0.961-1.068-0.814C349.062,217.056,348.905,217.647,349.1,218.24z"/>
					<path style="fill:#ED893E;" d="M351.262,218.423l-1.326,5.66c0,0,1.928,0.546,3.804-1.014L351.262,218.423z"/>
					<path style="fill:#263238;" d="M348.512,214.111c0.092-0.064,0.207-0.08,0.311-0.042c0.758,0.325,1.63,0.256,2.344-0.184
						c0.147-0.107,0.349-0.075,0.453,0.071c0.101,0.15,0.064,0.356-0.082,0.466c-0.893,0.578-2,0.68-2.961,0.272
						c-0.168-0.065-0.25-0.258-0.183-0.43l0-0.001C348.42,214.203,348.461,214.15,348.512,214.111z"/>
					<path style="fill:#FAB27B;" d="M371.269,207.99c3.033,7.73,4.488,10.939,2.435,16.646c-4.053,6.758-13.388,10.855-18.702,4.234
						c-4.784-5.955-8.929-17.568-2.874-24.199c4.318-4.724,11.577-5.16,16.213-0.974
						C369.644,204.874,370.646,206.344,371.269,207.99z"/>
					<path style="fill:#263238;" d="M378.591,210.298c-0.455,2.593-0.654,5.214-0.768,7.844c-0.069,1.599-0.43,3.186-1.077,4.65
						c-1.295,2.928-3.914,5.146-6.853,6.416c0,0,0.072,0.57,0,0c0,0-10.899-0.129-15.536-13.843
						c-2.548,0.24-5.185-0.862-6.804-2.843c-1.619-1.982-2.174-4.785-1.43-7.234c0.885-2.918,4.577-4.741,7.624-4.849
						c1.925-2.674,5.27-4.007,8.562-3.882c3.292,0.125,6.427,1.45,9.288,3.085c2.445,1.397,4.831,3.12,6.2,5.58
						C378.613,206.687,378.894,208.571,378.591,210.298z"/>
					<path style="fill:#FAB27B;" d="M356.631,217.027c-0.697,1.58-0.74,3.356-0.12,4.935c0.839,2.088,3.079,1.733,4.369-0.014
						c1.169-1.583,2.122-4.566,0.543-6.104C359.844,214.306,357.505,215.105,356.631,217.027z"/>
					<g>
						<path style="fill:#407BFF;" d="M378.619,225.164c-2.964,0.123-7.433,2.156-13.348,6.24c-0.656,0.453-0.88,1.406-0.804,2.2
							c0.076,0.794,0.873,1.55,1.629,1.296c0.397,0.965,0.658,2.096,1.055,3.061c1.711-1.058,3.887-1.617,5.74-2.399
							c2.959-1.249,6.059-2.129,9.149-3.005c-0.83-1.268-1.94-2.503-2.268-3.983c0.717-0.198,1.069-1.15,0.929-1.881
							C380.563,225.962,379.362,225.133,378.619,225.164z"/>
						<path style="fill:#407BFF;" d="M378.619,225.164c-2.964,0.123-7.433,2.156-13.348,6.24c-0.656,0.453-0.88,1.406-0.804,2.2
							c0.076,0.794,0.873,1.55,1.629,1.296c0.397,0.965,0.658,2.096,1.055,3.061c1.711-1.058,3.887-1.617,5.74-2.399
							c2.959-1.249,6.059-2.129,9.149-3.005c-0.83-1.268-1.94-2.503-2.268-3.983c0.717-0.198,1.069-1.15,0.929-1.881
							C380.563,225.962,379.362,225.133,378.619,225.164z"/>
					</g>
				</g>
				<path style="fill:#407BFF;" d="M369.844,301.758c0,0-9.893-23.143-16.177-46.612c-4.635-17.311,8.617-17.611,24.602-21.915
					c12.676-3.413,18.097-0.358,21.719,6.071c3.622,6.429,9.459,60.847,9.459,60.847L369.844,301.758z"/>
				<path style="fill:#407BFF;" d="M369.844,301.758c0,0-9.893-23.143-16.177-46.612c-4.635-17.311,8.617-17.611,24.602-21.915
					c12.676-3.413,18.097-0.358,21.719,6.071c3.622,6.429,9.459,60.847,9.459,60.847L369.844,301.758z"/>
				<path style="opacity:0.3;" d="M369.844,301.758c0,0-9.893-23.143-16.177-46.612c-4.635-17.311,8.617-17.611,24.602-21.915
					c12.676-3.413,18.097-0.358,21.719,6.071c3.622,6.429,9.459,60.847,9.459,60.847L369.844,301.758z"/>
				<g>
					<g>
						<path style="fill:#FAB27B;" d="M312.022,276.804l-1.124,0.041c-1.021,0.037-1.908,0.715-2.21,1.691l-0.231,0.745
							c-0.234,0.755-0.089,1.581,0.406,2.197c1.505,1.87,5.19,5.491,10.601,4.53l4.601-2.335l0.301-5.6l-8.22-2.715
							c-0.516-0.071-1.042,0.029-1.497,0.282L312.022,276.804z"/>
						<polygon style="fill:#FAB27B;" points="324.066,283.673 335.427,285.097 334.771,278.663 324.366,278.073 						"/>
					</g>
					<path style="fill:#407BFF;" d="M331.951,278.21c-0.514,0.669-0.957,1.592-0.963,2.781c-0.006,1.112,0.111,3.092,1.067,4.601
						l0,0c-1.905-0.314-3.856-0.184-5.703,0.38l-0.1,0.031c-5.164-5.053-0.931-9.207-0.931-9.207l0.376,0.123
						C327.734,277.564,329.83,278,331.951,278.21z"/>
					<g>
						<g>
							<path style="fill:#407BFF;" d="M354.123,287.345c-10.889,0.558-23.868-1.977-23.868-1.977
								c-0.322-0.861-0.324-1.705-0.133-2.494c0.409-1.739,1.03-3.89,1.828-4.663c0.854-0.828,5.38-0.444,5.38-0.444
								s9.456-2.513,11.347-3.546c1.872-1.031,2.922-7.227,3.335-11.382c2.207-22.197,6.351-23.162,10.018-23.527
								C369.646,238.552,363.765,286.849,354.123,287.345z"/>
						</g>
					</g>
				</g>
			</g>
		</g>
		<g>
			<g>
				<path style="fill:none;stroke:#263238;stroke-width:2;stroke-miterlimit:10;" d="M321.238,412.82l10.166-62.803
					c1.074-6.635,6.803-11.511,13.524-11.511h24.953c6.937,0,12.779,5.185,13.603,12.073l7.55,63.101"/>
				<path style="fill:none;stroke:#263238;stroke-width:2;stroke-miterlimit:10;" d="M356.137,412.82l10.166-62.803
					c1.074-6.635,6.803-11.511,13.524-11.511h24.953c6.937,0,12.779,5.185,13.603,12.073l7.55,63.101"/>
				
					<line style="fill:none;stroke:#263238;stroke-width:2;stroke-miterlimit:10;" x1="323.908" y1="396.422" x2="358.254" y2="396.422"/>
				
					<line style="fill:none;stroke:#263238;stroke-width:2;stroke-miterlimit:10;" x1="383.485" y1="350.579" x2="418.998" y2="350.579"/>
			</g>
			<g>
				<g>
					<path style="fill:#407BFF;" d="M389.981,339.935h26.13c10.074,0,18.455-7.744,19.25-17.786l3.718-46.94
						c0.603-7.609-5.409-14.116-13.042-14.116h-14.434c-16.847,0-31.695,11.061-36.517,27.203l-10.012,33.517
						c-1.678,5.619-6.846,9.469-12.71,9.469h-18.263c-4.779,0-8.654,3.875-8.654,8.654h49.14H389.981z"/>
				</g>
				<g>
					<path style="opacity:0.7;fill:#FFFFFF;" d="M389.981,339.935h26.13c10.074,0,18.455-7.744,19.25-17.786l3.718-46.94
						c0.603-7.609-5.409-14.116-13.042-14.116h-14.434c-16.847,0-31.695,11.061-36.517,27.203l-10.012,33.517
						c-1.678,5.619-6.846,9.469-12.71,9.469h-18.263c-4.779,0-8.654,3.875-8.654,8.654h49.14H389.981z"/>
				</g>
			</g>
		</g>
	</g>
</g>
<g id="Speedometer">
	<g>
		<g>
			<g>
				<g>
					<g>
						<g>
							<path style="fill:#407BFF;" d="M364.09,177.941h0.004l0.009-0.106C364.1,177.871,364.097,177.904,364.09,177.941z"/>
							<g>
								<path style="fill:#407BFF;" d="M317.001,165.276c-3.377,3.136-5.944,7.152-7.25,11.641l-1.832-0.022
									c0.632-5.087,2.58-9.829,5.472-13.878L317.001,165.276z"/>
								<path style="opacity:0.6;fill:#FFFFFF;" d="M317.001,165.276c-3.377,3.136-5.944,7.152-7.25,11.641l-1.832-0.022
									c0.632-5.087,2.58-9.829,5.472-13.878L317.001,165.276z"/>
							</g>
							<g>
								<path style="fill:#407BFF;" d="M327.6,159.294c-3.966,1.108-7.604,3.198-10.598,5.982l-3.609-2.259
									c2.934-4.111,6.837-7.508,11.316-9.829L327.6,159.294z"/>
								<path style="opacity:0.5;fill:#FFFFFF;" d="M327.6,159.294c-3.966,1.108-7.604,3.198-10.598,5.982l-3.609-2.259
									c2.934-4.111,6.837-7.508,11.316-9.829L327.6,159.294z"/>
							</g>
							<g>
								<path style="fill:#407BFF;" d="M338.832,149.799l-0.888,8.931c-1.246-0.22-2.542-0.33-3.87-0.33
									c-2.219,0-4.392,0.312-6.475,0.895l-2.891-6.107c4.172-2.164,8.85-3.393,13.702-3.393
									C338.55,149.795,338.693,149.795,338.832,149.799z"/>
								<path style="opacity:0.4;fill:#FFFFFF;" d="M338.832,149.799l-0.888,8.931c-1.246-0.22-2.542-0.33-3.87-0.33
									c-2.219,0-4.392,0.312-6.475,0.895l-2.891-6.107c4.172-2.164,8.85-3.393,13.702-3.393
									C338.55,149.795,338.693,149.795,338.832,149.799z"/>
							</g>
							<g>
								<path style="fill:#407BFF;" d="M352.206,153.595l-5.824,8.549c-2.448-1.695-5.305-2.879-8.438-3.415l0.888-8.931
									C343.818,149.872,348.374,151.244,352.206,153.595z"/>
								<path style="opacity:0.3;fill:#FFFFFF;" d="M352.206,153.595l-5.824,8.549c-2.448-1.695-5.305-2.879-8.438-3.415
									l0.888-8.931C343.818,149.872,348.374,151.244,352.206,153.595z"/>
							</g>
							<g>
								<path style="fill:#407BFF;" d="M361.462,163.67l-9.104,4.871c-1.509-2.538-3.541-4.717-5.976-6.396l5.824-8.549
									C356.175,156.026,359.369,159.503,361.462,163.67z"/>
								<path style="opacity:0.2;fill:#FFFFFF;" d="M361.462,163.67l-9.104,4.871c-1.509-2.538-3.541-4.717-5.976-6.396l5.824-8.549
									C356.175,156.026,359.369,159.503,361.462,163.67z"/>
							</g>
							<g>
								<path style="fill:#407BFF;" d="M364.119,177.574l-8.903-0.106c-0.294-3.264-1.294-6.29-2.857-8.927l9.104-4.871
									C363.511,167.756,364.5,172.502,364.119,177.574z"/>
								<path style="opacity:0.1;fill:#FFFFFF;" d="M364.119,177.574l-8.903-0.106c-0.294-3.264-1.294-6.29-2.857-8.927l9.104-4.871
									C363.511,167.756,364.5,172.502,364.119,177.574z"/>
							</g>
							<path style="fill:#407BFF;" d="M364.103,177.834c-0.003,0.037-0.006,0.07-0.013,0.106c-0.238,2.509-1.236,6.672-2.373,9.1
								l-7.205-1.629l0.58-2.754c0.053-0.356,0.096-0.715,0.131-1.078h0.004l0.019-0.22h-0.004c0.105-1.328,0.094-2.626-0.026-3.891
								l8.903,0.106c-0.001,0.051-0.005,0.099-0.009,0.15C364.11,177.761,364.107,177.798,364.103,177.834z"/>
						</g>
					</g>
					<g>
						<g>
							<g>
								<path style="fill:#407BFF;" d="M309.015,186.468l-0.538,0.117c-0.167-0.686-0.308-1.383-0.422-2.091
									c-0.333-2.102-0.424-4.295-0.245-6.554h-0.004l0.009-0.106c0.003-0.037,0.006-0.073,0.013-0.11
									c0.028-0.279,0.056-0.554,0.091-0.829l1.832,0.022c-0.419,1.434-0.711,2.923-0.858,4.442
									c-0.007,0.037-0.01,0.073-0.013,0.11s-0.006,0.073-0.006,0.11c-0.072,0.902-0.087,1.79-0.054,2.666
									C308.846,184.997,308.91,185.738,309.015,186.468z"/>
							</g>
							<path style="opacity:0.7;fill:#FFFFFF;" d="M309.015,186.468l-0.538,0.117c-0.167-0.686-0.308-1.383-0.422-2.091
								c-0.333-2.102-0.424-4.295-0.245-6.554h-0.004l0.009-0.106c0.003-0.037,0.006-0.073,0.013-0.11
								c0.028-0.279,0.056-0.554,0.091-0.829l1.832,0.022c-0.419,1.434-0.711,2.923-0.858,4.442c-0.007,0.037-0.01,0.073-0.013,0.11
								s-0.006,0.073-0.006,0.11c-0.072,0.902-0.087,1.79-0.054,2.666C308.846,184.997,308.91,185.738,309.015,186.468z"/>
						</g>
					</g>
				</g>
			</g>
		</g>
		<g>
			<g>
				<path style="fill:#263238;" d="M363.517,185.016l-0.752,1.888l-1.544-0.348l-14.353-3.249l-6.181-1.402
					c0.438-0.557,0.794-1.167,1.059-1.806c0.317-0.759,0.51-1.559,0.562-2.367l13.702,4.703l0,0.004L363.517,185.016z"/>
				<path style="fill:#263238;" d="M342.308,177.733c-0.096,1.484-0.666,2.95-1.621,4.173l-5.551-1.256l1.757-4.778L342.308,177.733
					z"/>
			</g>
		</g>
		<path style="fill:#407BFF;" d="M342.308,177.733c-0.096,1.484-0.666,2.95-1.621,4.173c-0.666,0.856-1.519,1.596-2.535,2.139
			c-3.569,1.911-7.778,0.703-9.395-2.703c-1.613-3.402-0.028-7.717,3.546-9.631c3.57-1.914,7.778-0.703,9.395,2.703
			C342.196,175.467,342.388,176.607,342.308,177.733z"/>
	</g>
</g>
<g id="Number">
	<g>
		<path style="fill:#407BFF;" d="M114.485,173.497h5.723v4.798h-6.295l-0.88,7.044h-4.975l0.88-7.044h-6.471l-0.88,7.044h-4.931
			l0.881-7.044h-5.767v-4.798h6.339l0.924-7.131h-5.767v-4.798h6.339l0.88-7.044h4.931l-0.881,7.044h6.471l0.881-7.044h4.93
			l-0.88,7.044h5.723l0.044,4.798h-6.339L114.485,173.497z M109.51,173.497l0.924-7.131h-6.471l-0.924,7.131H109.51z"/>
		<path style="fill:#407BFF;" d="M136.185,154.524v30.815h-7.131v-25.092h-6.163v-5.723H136.185z"/>
	</g>
</g>
<g id="Symbol">
	<g>
		<g>
			<rect x="60.15" y="282.694" style="fill:#263238;" width="49.311" height="33.948"/>
			<rect x="60.15" y="282.694" style="fill:#407BFF;" width="49.311" height="3.11"/>
		</g>
		<g>
			<path style="fill:#FFFFFF;" d="M69.185,301.47l8.062,4.468c0.404,0.227,0.674,0.43,0.807,0.607c0.133,0.178,0.2,0.405,0.2,0.68
				c0,0.348-0.125,0.65-0.376,0.905c-0.251,0.255-0.543,0.382-0.874,0.382c-0.219,0-0.546-0.121-0.983-0.364l-10.4-5.784
				c-0.701-0.39-0.701-1.398,0-1.788l10.4-5.784c0.437-0.235,0.76-0.352,0.971-0.352c0.34,0,0.635,0.126,0.887,0.376
				c0.251,0.251,0.376,0.551,0.376,0.898c0,0.275-0.067,0.502-0.2,0.68c-0.134,0.178-0.403,0.38-0.807,0.607L69.185,301.47z"/>
			<path style="fill:#FFFFFF;" d="M89.928,293.141l-7.977,17.192c-0.203,0.429-0.385,0.708-0.547,0.838
				c-0.211,0.17-0.465,0.255-0.765,0.255c-0.34,0-0.633-0.121-0.881-0.365c-0.247-0.243-0.37-0.518-0.37-0.825
				c0-0.218,0.097-0.538,0.291-0.959l8.001-17.18c0.202-0.429,0.381-0.708,0.534-0.838c0.219-0.17,0.474-0.255,0.765-0.255
				c0.34,0,0.631,0.119,0.874,0.358c0.243,0.239,0.365,0.512,0.365,0.82C90.219,292.4,90.122,292.72,89.928,293.141z"/>
			<path style="fill:#FFFFFF;" d="M99.958,301.47l-8.062-4.468c-0.405-0.226-0.674-0.429-0.807-0.607
				c-0.134-0.178-0.2-0.405-0.2-0.68c0-0.348,0.125-0.647,0.376-0.898c0.251-0.251,0.546-0.376,0.886-0.376
				c0.211,0,0.535,0.117,0.972,0.352l10.4,5.784c0.701,0.39,0.701,1.398,0,1.788l-10.4,5.784c-0.437,0.243-0.761,0.364-0.972,0.364
				c-0.344,0-0.643-0.129-0.895-0.385c-0.238-0.242-0.367-0.562-0.367-0.902c0-0.275,0.067-0.501,0.2-0.679
				c0.133-0.178,0.402-0.38,0.807-0.607L99.958,301.47z"/>
		</g>
	</g>
</g>
</svg>
