<?xml version="1.0" encoding="utf-8"?>
<!-- Generator: Adobe Illustrator 27.5.0, SVG Export Plug-In . SVG Version: 6.00 Build 0)  -->
<svg version="1.1" xmlns="http://www.w3.org/2000/svg" xmlns:xlink="http://www.w3.org/1999/xlink" x="0px" y="0px"
	 viewBox="0 0 500 500" style="enable-background:new 0 0 500 500;" xml:space="preserve">
<g id="Background_Complete">
	<g>
		<rect y="382.398" style="fill:#EBEBEB;" width="500" height="0.25"/>
		<rect x="394.358" y="393.852" style="fill:#EBEBEB;" width="50.901" height="0.25"/>
		<rect x="52.459" y="390.888" style="fill:#EBEBEB;" width="47.208" height="0.25"/>
		<rect x="378.807" y="389.208" style="fill:#EBEBEB;" width="19.192" height="0.25"/>
		<rect x="317.138" y="395.838" style="fill:#EBEBEB;" width="14.082" height="0.25"/>
		<rect x="272.79" y="395.838" style="fill:#EBEBEB;" width="35.444" height="0.25"/>
		<rect x="195.222" y="391.616" style="fill:#EBEBEB;" width="56.986" height="0.25"/>
		<path style="fill:#EBEBEB;" d="M237.014,337.8H43.915c-3.147,0-5.708-2.561-5.708-5.708V60.66c0-3.147,2.561-5.708,5.708-5.708
			h193.099c3.146,0,5.707,2.561,5.707,5.708v271.432C242.721,335.239,240.16,337.8,237.014,337.8z M43.915,55.203
			c-3.01,0-5.458,2.448-5.458,5.458v271.432c0,3.01,2.448,5.458,5.458,5.458h193.099c3.009,0,5.457-2.448,5.457-5.458V60.66
			c0-3.009-2.448-5.458-5.457-5.458H43.915z"/>
		<path style="fill:#EBEBEB;" d="M453.31,337.8H260.212c-3.147,0-5.707-2.561-5.707-5.708V60.66c0-3.147,2.561-5.708,5.707-5.708
			H453.31c3.148,0,5.708,2.561,5.708,5.708v271.432C459.019,335.239,456.458,337.8,453.31,337.8z M260.212,55.203
			c-3.009,0-5.457,2.448-5.457,5.458v271.432c0,3.01,2.448,5.458,5.457,5.458H453.31c3.01,0,5.458-2.448,5.458-5.458V60.66
			c0-3.009-2.448-5.458-5.458-5.458H260.212z"/>
	</g>
	<g>
		<g>
			<g>
				<rect x="288.572" y="85.667" style="fill:#EBEBEB;" width="101.799" height="296.732"/>
				
					<rect x="197.106" y="190.005" transform="matrix(-1.836970e-16 1 -1 -1.836970e-16 573.5043 -105.439)" style="fill:#FAFAFA;" width="284.731" height="88.056"/>
			</g>
			<g>
				<rect x="183.719" y="85.667" style="fill:#EBEBEB;" width="101.799" height="296.732"/>
				
					<rect x="285.518" y="86.833" transform="matrix(-1 -1.224647e-16 1.224647e-16 -1 574.0904 468.065)" style="fill:#E0E0E0;" width="3.054" height="294.398"/>
				
					<rect x="92.253" y="190.005" transform="matrix(-1.836970e-16 1 -1 -1.836970e-16 468.6512 -0.5859)" style="fill:#FAFAFA;" width="284.731" height="88.056"/>
			</g>
			<path style="fill:#E0E0E0;" d="M436.871,83.444H137.219c-0.733,0-1.333-0.6-1.333-1.333l0,0c0-0.733,0.6-1.333,1.333-1.333
				h299.652c0.733,0,1.333,0.6,1.333,1.333l0,0C438.205,82.844,437.605,83.444,436.871,83.444z"/>
			
				<rect x="336.638" y="50.472" transform="matrix(-1.836970e-16 1 -1 -1.836970e-16 433.9718 -244.9715)" style="fill:#E0E0E0;" width="5.666" height="88.056"/>
			
				<rect x="334.694" y="52.416" transform="matrix(-1.836970e-16 1 -1 -1.836970e-16 435.9163 -243.0271)" style="fill:#E0E0E0;" width="9.555" height="88.056"/>
			
				<rect x="224.174" y="58.083" transform="matrix(-1.836970e-16 1 -1 -1.836970e-16 336.7299 -132.5072)" style="fill:#E0E0E0;" width="20.889" height="88.056"/>
			<g style="opacity:0.8;">
				<rect x="375.243" y="74.556" style="fill:#F5F5F5;" width="28.202" height="304.194"/>
				<rect x="382.687" y="74.556" style="fill:#F0F0F0;" width="13.313" height="304.194"/>
				<rect x="390.371" y="74.556" style="fill:#F5F5F5;" width="28.202" height="304.194"/>
				<rect x="397.816" y="74.556" style="fill:#F0F0F0;" width="13.313" height="304.194"/>
				<rect x="404.472" y="74.556" style="fill:#F5F5F5;" width="28.202" height="304.194"/>
			</g>
			<g style="opacity:0.8;">
				<rect x="140.526" y="74.556" style="fill:#F5F5F5;" width="40.927" height="304.194"/>
				<rect x="151.33" y="74.556" style="fill:#F0F0F0;" width="19.32" height="304.194"/>
				<rect x="162.481" y="74.556" style="fill:#F5F5F5;" width="40.927" height="304.194"/>
				<rect x="173.285" y="74.556" style="fill:#F0F0F0;" width="19.32" height="304.194"/>
				<rect x="182.945" y="74.556" style="fill:#F5F5F5;" width="40.927" height="304.194"/>
			</g>
		</g>
		<g>
			<rect x="55.072" y="105.734" style="fill:#F0F0F0;" width="66.031" height="148.667"/>
			
				<rect x="121.103" y="105.734" transform="matrix(-1 -1.224647e-16 1.224647e-16 -1 244.2835 360.1356)" style="fill:#E6E6E6;" width="2.079" height="148.667"/>
			
				<rect x="19.754" y="153.052" transform="matrix(-1.836970e-16 1 -1 -1.836970e-16 268.1548 91.9803)" style="fill:#FAFAFA;" width="136.667" height="54.031"/>
		</g>
		<g>
			<path style="fill:#F5F5F5;" d="M125.259,328.074H57.477c-3.093,0-5.623-2.53-5.623-5.623l0,0c0-3.093,2.53-5.623,5.623-5.623
				h67.782c3.093,0,5.623,2.53,5.623,5.623l0,0C130.882,325.544,128.352,328.074,125.259,328.074z"/>
			<polygon style="fill:#E6E6E6;" points="73.778,328.074 62.654,328.074 50,382.398 61.124,382.398 			"/>
			<polygon style="fill:#E6E6E6;" points="95.985,328.074 84.861,328.074 78.627,382.398 89.751,382.398 			"/>
			<polygon style="fill:#E6E6E6;" points="108.958,328.074 120.083,328.074 132.736,382.398 121.612,382.398 			"/>
		</g>
	</g>
</g>
<g id="Background_Simple" style="display:none;">
	<g style="display:inline;">
		<path style="fill:#407BFF;" d="M417.297,245.3c4.224-36.066-53.654-129.326-104.981-157.064
			c-66.569-35.975-148.334-12.768-180.219,62.752C102.475,221.15,145.596,287,216.334,304.468
			C279.324,320.023,414.321,288.884,417.297,245.3z"/>
		<path style="opacity:0.9;fill:#FFFFFF;" d="M417.297,245.3c4.224-36.066-53.654-129.326-104.981-157.064
			c-66.569-35.975-148.334-12.768-180.219,62.752C102.475,221.15,145.596,287,216.334,304.468
			C279.324,320.023,414.321,288.884,417.297,245.3z"/>
	</g>
</g>
<g id="Shadow_1_">
	<ellipse id="_x3C_Path_x3E__340_" style="fill:#F5F5F5;" cx="250" cy="416.238" rx="193.889" ry="11.323"/>
</g>
<g id="Character_1_">
	<g>
		<g>
			<path style="fill:#263238;" d="M314.577,307.578h-85.339c-1.609,0-2.926-1.317-2.926-2.926v-3.365
				c0-1.609,1.317-2.926,2.926-2.926h85.339c1.609,0,2.926,1.317,2.926,2.926v3.365
				C317.503,306.262,316.186,307.578,314.577,307.578z"/>
			<g>
				<polygon style="fill:#407BFF;" points="313.762,410.241 317.503,410.241 313.197,307.578 308.021,307.578 				"/>
				<polygon style="opacity:0.6;fill:#FFFFFF;" points="313.762,410.241 317.503,410.241 313.197,307.578 308.021,307.578 				"/>
			</g>
			<g>
				<polygon style="fill:#407BFF;" points="279.327,410.241 275.586,410.241 279.892,307.578 285.068,307.578 				"/>
				<polygon style="opacity:0.6;fill:#FFFFFF;" points="279.327,410.241 275.586,410.241 279.892,307.578 285.068,307.578 				"/>
			</g>
			<g>
				<polygon style="fill:#407BFF;" points="264.488,410.241 268.229,410.241 263.923,307.578 258.747,307.578 				"/>
				<polygon style="opacity:0.6;fill:#FFFFFF;" points="264.488,410.241 268.229,410.241 263.923,307.578 258.747,307.578 				"/>
			</g>
			<g>
				<polygon style="fill:#407BFF;" points="230.053,410.241 226.313,410.241 230.618,307.578 235.794,307.578 				"/>
				<polygon style="opacity:0.6;fill:#FFFFFF;" points="230.053,410.241 226.313,410.241 230.618,307.578 235.794,307.578 				"/>
			</g>
			<g style="opacity:0.3;">
				<polygon style="fill:#407BFF;" points="313.2,307.575 308.018,307.575 308.26,311.939 313.384,311.939 				"/>
				<polygon style="fill:#407BFF;" points="279.71,311.939 284.825,311.939 285.066,307.575 279.894,307.575 				"/>
				<polygon style="fill:#407BFF;" points="258.749,307.575 258.991,311.939 264.106,311.939 263.922,307.575 				"/>
				<polygon style="fill:#407BFF;" points="230.431,311.939 235.556,311.939 235.798,307.575 230.615,307.575 				"/>
			</g>
		</g>
		<g>
			<g>
				<g>
					<g>
						<g>
							<polygon style="fill:#FFB573;" points="262.085,395.154 253.616,399.651 240.283,381.639 248.752,377.143 							"/>
							<path style="fill:#263238;" d="M250.564,396.872l8.835-6.144c0.322-0.224,0.719-0.169,0.957,0.132l5.289,6.693
								c0.549,0.694,0.345,1.854-0.404,2.356c-3.113,2.086-4.516,2.814-8.586,5.23c-2.504,1.486-8.507,5.011-12.195,6.614
								c-3.606,1.568-5.168-2.09-3.748-3.098c3.363-2.387,7.825-7.068,8.833-10.356C249.728,397.705,250.094,397.2,250.564,396.872z
								"/>
							<g>
								<polygon style="opacity:0.2;" points="248.758,377.147 240.285,381.645 246.709,390.316 254.989,385.557 								"/>
							</g>
							<g>
								<path style="fill:#407BFF;" d="M269.189,270.469c0,0-65.742-2.046-65.967,25.422c-0.323,39.482,37.146,91.324,37.146,91.324
									l14.588-9.748c0,0-25.677-37.692-25.897-68.512c19.376-5.47,64.985-2.04,70.908-18.097
									c4.845-13.136,2.314-20.389,2.314-20.389H269.189z"/>
								<path style="opacity:0.2;" d="M269.189,270.469c0,0-65.742-2.046-65.967,25.422c-0.323,39.482,37.146,91.324,37.146,91.324
									l14.588-9.748c0,0-25.677-37.692-25.897-68.512c19.376-5.47,64.985-2.04,70.908-18.097
									c4.845-13.136,2.314-20.389,2.314-20.389H269.189z"/>
							</g>
							<polygon style="fill:#263238;" points="258.981,379.976 241.543,390.656 236.074,385.107 255.233,373.044 							"/>
							<path style="fill:#407BFF;" d="M248.73,400.181c0.726-0.505,1.426-1.214,1.9-1.739c0.059-0.065,0.074-0.159,0.038-0.24
								c-0.036-0.081-0.116-0.132-0.204-0.133c-0.373,0-3.657,0.026-4.355,1.071c-0.162,0.242-0.185,0.524-0.066,0.816
								c0.196,0.481,0.506,0.762,0.921,0.835C247.492,400.885,248.12,400.605,248.73,400.181z M249.941,398.527
								c-1.212,1.259-2.278,1.935-2.899,1.826c-0.258-0.045-0.449-0.23-0.585-0.564c-0.063-0.155-0.056-0.281,0.023-0.398
								C246.856,398.828,248.625,398.581,249.941,398.527z"/>
							<path style="fill:#407BFF;" d="M250.592,398.476c0.029-0.02,0.053-0.047,0.07-0.078c0.036-0.068,0.035-0.149-0.004-0.216
								c-0.059-0.101-1.455-2.486-2.78-2.699c-0.357-0.057-0.678,0.039-0.955,0.284c-0.332,0.295-0.431,0.657-0.279,1.017
								c0.415,0.984,2.729,1.81,3.837,1.732C250.521,398.513,250.559,398.499,250.592,398.476z M247.3,396.036
								c0.152-0.106,0.318-0.143,0.506-0.113c0.791,0.126,1.756,1.377,2.254,2.139c-1.085-0.102-2.733-0.806-3.005-1.452
								c-0.052-0.123-0.08-0.292,0.164-0.51C247.245,396.076,247.273,396.055,247.3,396.036z"/>
						</g>
						<g>
							<polygon style="fill:#FFB573;" points="246.429,406.194 236.926,405.744 235.37,383.309 244.873,383.758 							"/>
							<path style="fill:#263238;" d="M236.708,404.119l10.756-0.34c0.391-0.012,0.695,0.25,0.731,0.632l0.791,8.494
								c0.082,0.881-0.72,1.743-1.622,1.756c-3.747,0.054-5.543-0.11-10.273,0.04c-2.91,0.092-8.635,0.525-12.624,0.023
								c-3.902-0.491-3.379-4.435-1.643-4.577c4.11-0.337,9.618-3.177,12.255-5.385
								C235.553,404.361,236.136,404.137,236.708,404.119z"/>
							<path style="fill:#407BFF;" d="M233.367,405.894c0.884-0.028,1.857-0.241,2.541-0.423c0.085-0.022,0.149-0.093,0.163-0.18
								c0.014-0.088-0.025-0.174-0.099-0.222c-0.313-0.203-3.081-1.97-4.236-1.474c-0.268,0.115-0.441,0.338-0.5,0.648
								c-0.097,0.511,0.009,0.915,0.318,1.202C231.947,405.81,232.626,405.917,233.367,405.894z M235.284,405.167
								c-1.702,0.395-2.965,0.382-3.426-0.048c-0.191-0.178-0.251-0.437-0.184-0.792c0.031-0.164,0.106-0.266,0.237-0.321
								C232.533,403.739,234.151,404.495,235.284,405.167z"/>
							<path style="fill:#407BFF;" d="M235.858,405.478c0.035-0.001,0.07-0.01,0.101-0.028c0.067-0.037,0.11-0.106,0.114-0.184
								c0.006-0.117,0.134-2.878-0.862-3.778c-0.268-0.243-0.59-0.337-0.956-0.282c-0.439,0.067-0.719,0.316-0.788,0.701
								c-0.188,1.051,1.303,3.005,2.275,3.543C235.779,405.47,235.818,405.479,235.858,405.478z M234.427,401.639
								c0.185-0.006,0.345,0.053,0.485,0.181c0.595,0.537,0.723,2.111,0.725,3.021c-0.855-0.677-1.853-2.165-1.73-2.855
								c0.023-0.131,0.092-0.289,0.415-0.338C234.359,401.643,234.393,401.64,234.427,401.639z"/>
							<g>
								<polygon style="opacity:0.2;" points="244.876,383.765 235.369,383.315 236.264,396.144 245.738,396.128 								"/>
							</g>
							<path style="fill:#407BFF;" d="M292.575,270.469c0,0-68.787,6.504-66.282,27.208c3.613,29.863,5.4,94.224,5.4,94.224
								l17.531,0.689c0,0,7.429-58.051,3.586-88.631c17.801,0,61.379,1.281,65.353-9.445c3.511-9.475,2.258-24.046,2.258-24.046
								H292.575z"/>
							<polygon style="fill:#263238;" points="251.16,393.671 230.119,392.628 229.363,383.47 252.436,385.064 							"/>
						</g>
						<g>
							<path style="fill:#FFB573;" d="M277.307,209.81c-0.127,1.684-0.261,3.138-0.452,4.684c-0.18,1.524-0.388,3.04-0.629,4.554
								c-0.469,3.03-1.061,6.047-1.764,9.072c-1.464,6.047-3.247,12.089-6.595,18.22c-0.881,1.536-1.838,3.061-3.085,4.586
								c-1.222,1.503-2.816,3.09-4.54,4.228c-3.483,2.356-7.446,3.477-11.075,3.735c-3.656,0.278-7.082-0.168-10.285-0.974
								c-1.603-0.404-3.156-0.904-4.663-1.495c-0.755-0.29-1.495-0.616-2.23-0.956c-0.758-0.344-1.41-0.702-2.25-1.153l2.631-6.694
								l1.911,0.242l2.003,0.204c1.335,0.106,2.658,0.171,3.952,0.175c2.587,0.007,5.073-0.248,7.214-0.826
								c2.147-0.594,3.87-1.49,5.09-2.648c0.634-0.598,1.091-1.133,1.657-1.944c0.553-0.787,1.068-1.804,1.58-2.838
								c1.01-2.129,1.876-4.561,2.595-7.109c0.756-2.535,1.372-5.188,1.919-7.881c0.565-2.689,1.019-5.434,1.453-8.186l0.59-4.14
								c0.173-1.357,0.371-2.811,0.501-4.043L277.307,209.81z"/>
							<g>
								<path style="fill:#263238;" d="M277.369,201.663c-7.033-6.796-15.701-2.784-19.159,9.942
									c-3.458,12.726-3.997,20.873-3.997,20.873l22.27,4.606C280.531,224.938,284.571,208.622,277.369,201.663z"/>
							</g>
							<path style="opacity:0.3;" d="M270.197,215.563c1.591-1.437,6.115,4.984,8.872,12.925c-0.778,2.969-1.673,5.891-2.581,8.601
								l-13.396-2.769C264.164,226.403,266.627,218.78,270.197,215.563z"/>
							<path style="fill:#FFB573;" d="M230.855,244.537l-4.956-1.909l-0.218,10.611c0,0,8.403,3.634,10.113-0.54l-0.602-2.647
								C234.675,247.783,233.074,245.746,230.855,244.537z"/>
							<polygon style="fill:#FFB573;" points="219.959,242.907 217.009,251.812 225.681,253.239 225.899,242.628 							"/>
							<path style="fill:#263238;" d="M227.522,249.975c-0.208,0-0.409-0.113-0.512-0.311l-8.934-17.194
								c-0.146-0.282-0.036-0.63,0.246-0.777c0.283-0.145,0.631-0.036,0.777,0.246l8.934,17.194c0.146,0.282,0.036,0.63-0.246,0.777
								C227.702,249.954,227.612,249.975,227.522,249.975z"/>
						</g>
						<path style="fill:#263238;" d="M276.543,194.848l10.674-3.045l13.727-0.648c4.283-0.202,8.153,2.487,9.49,6.56
							c2.618,7.975,5.025,19.529,6.778,29.499c1.967,11.18,2.991,27.982,3.207,43.255h-51.232
							c-1.169-31.849-5.223-50.679-7.02-61.099c-0.724-4.199,1.433-8.357,5.28-10.189L276.543,194.848z"/>
						<path style="opacity:0.3;" d="M317.208,227.216c-1.378-7.847-3.158-16.684-5.137-23.977
							c-9.131-1.543-13.556,18.483-10.845,28.413c2.711,9.93,17.168,3.912,17.168,3.912
							C318.046,232.551,317.65,229.741,317.208,227.216z"/>
						<path style="fill:#263238;" d="M285.401,171.012c2.195,5.399,0.874,15.301-3.464,12.499
							C277.6,180.71,284.061,167.715,285.401,171.012z"/>
						<path style="fill:#FFB573;" d="M282.962,174.464l-4.149,6.332l-5.646,8.63c0.387,0.202,1.25,1.556,1.745,2.555
							c1.031,2.078,1.884,3.633-2.48,6.609c-0.934,0.637-1.522,1.752-1.31,2.862c0.257,1.348,1.603,2.658,6.313,1.826
							c5.455-0.963,9.106-3.846,11.821-6.561c1.569-1.569,1.209-2.751-0.302-4.376C284.671,187.738,283.39,180.39,282.962,174.464z"
							/>
						<path style="opacity:0.2;" d="M274.556,187.305l3.464-6.151c0.071,0.153,0.153,0.33,0.236,0.507
							c0.271,0.66,0.542,1.485,0.742,2.356c0.636,2.733-1.485,6.633-3.818,8.495c-0.094-0.177-0.177-0.354-0.271-0.53
							c-0.436-0.895-1.178-2.074-1.602-2.451c-0.047-0.047-0.094-0.083-0.141-0.106L274.556,187.305z"/>
						<path style="fill:#263238;" d="M253.787,167.001c-1.286,2.908,3.287,11.151,8.517,7.818
							C267.533,171.486,256.067,161.845,253.787,167.001z"/>
						<path style="fill:#FFFFFF;" d="M279.007,205.052c-0.14,0-0.263-0.102-0.285-0.243c-0.387-2.473-1.983-4.04-3.834-5.855
							c-2.318-2.276-4.947-4.856-5.813-9.903c-0.026-0.157,0.078-0.306,0.235-0.333c0.166-0.03,0.307,0.079,0.333,0.235
							c0.834,4.863,3.392,7.374,5.648,9.589c1.843,1.81,3.583,3.518,4,6.178c0.024,0.157-0.083,0.305-0.24,0.33
							C279.036,205.051,279.022,205.052,279.007,205.052z"/>
						<path style="fill:#FFB573;" d="M281.13,164.073c1.956,9.059,3.564,14.269,0.325,20.033c-4.871,8.67-17.076,7.491-21.715-0.846
							c-4.175-7.504-6.672-21.057,1.099-26.908C268.496,150.589,279.174,155.014,281.13,164.073z"/>
						<path style="fill:#263238;" d="M283.821,170.293c-3.118,4.429-11.297-3.706-10.631-9.166
							c-8.121,4.623-16.94,10.796-22.294,5.594c-6.176-6.002-4.483-14.599,2.754-15.368c-1.281,2.498,5.969,3.607,9.873-0.256
							c6.549-6.481,16.896-5.123,16.704,0.128C285.222,149.24,290.674,160.559,283.821,170.293z"/>
						<path style="fill:#263238;" d="M279.272,152.689c1.932-1.436,0.644-6.565-3.833-8.073
							C279.696,145.166,284.107,148.341,279.272,152.689z"/>
						<path style="fill:#FFB573;" d="M286.707,169.89c0.102,2.253-0.747,4.352-1.893,5.712c-1.723,2.045-4.379,0.414-4.994-2.137
							c-0.554-2.297,0.164-5.843,2.419-6.941C284.462,165.442,286.591,167.314,286.707,169.89z"/>
						<path style="fill:#263238;" d="M268.133,171.416c0.241,0.735,0.052,1.471-0.422,1.645c-0.474,0.174-1.054-0.28-1.295-1.015
							c-0.241-0.734-0.052-1.471,0.422-1.645C267.313,170.227,267.892,170.682,268.133,171.416z"/>
						<path style="fill:#263238;" d="M259.935,174.425c0.241,0.735,0.052,1.471-0.422,1.645c-0.474,0.174-1.054-0.28-1.295-1.015
							c-0.241-0.735-0.052-1.471,0.422-1.645C259.114,173.236,259.694,173.69,259.935,174.425z"/>
						<path style="fill:#ED893E;" d="M262.738,174.036c0,0,0.056,4.129-0.762,6.497c1.47,0.535,3.092-0.731,3.092-0.731
							L262.738,174.036z"/>
						<path style="fill:#263238;" d="M267.132,183.834c2.877-0.995,3.864-3.345,3.908-3.454c0.047-0.116-0.008-0.248-0.124-0.296
							c-0.116-0.048-0.248,0.008-0.296,0.124c-0.012,0.027-1.133,2.704-4.452,3.424c-0.124,0.026-0.2,0.147-0.173,0.27
							c0.026,0.122,0.147,0.2,0.27,0.173C266.571,184.01,266.86,183.928,267.132,183.834z"/>
						<path style="fill:#263238;" d="M268.883,168.241c0.066-0.035,0.123-0.087,0.167-0.154c0.135-0.211,0.075-0.492-0.136-0.627
							c-2.087-1.34-3.997-0.456-4.077-0.418c-0.223,0.081-0.323,0.378-0.215,0.604c0.108,0.226,0.378,0.322,0.604,0.215
							c0.079-0.036,1.558-0.691,3.197,0.362C268.567,168.316,268.743,168.317,268.883,168.241z"/>
						<path style="fill:#263238;" d="M258.309,169.68c0.008-0.074-0.001-0.151-0.032-0.225c-0.096-0.231-0.362-0.342-0.593-0.245
							c-2.291,0.951-2.653,3.025-2.667,3.112c-0.061,0.229,0.126,0.48,0.374,0.521c0.247,0.04,0.48-0.127,0.521-0.374
							c0.016-0.086,0.32-1.674,2.119-2.421C258.19,169.982,258.291,169.838,258.309,169.68z"/>
						<g>
							<path style="fill:#FFB573;" d="M308.669,198.025c0.964,1.618,1.801,3.072,2.629,4.634c0.825,1.538,1.628,3.085,2.413,4.644
								c1.584,3.111,3.016,6.307,4.384,9.566c1.33,3.275,2.583,6.618,3.625,10.125c1.018,3.52,1.923,7.154,2.268,11.254
								c0.153,2.057,0.187,4.24-0.226,6.704c-0.186,1.143-0.584,2.738-1.327,4.212c-0.724,1.483-1.812,2.88-3.051,3.941
								c-1.239,1.078-2.586,1.822-3.862,2.34c-1.283,0.52-2.513,0.828-3.677,1.027c-2.33,0.398-4.427,0.33-6.409,0.174
								c-1.981-0.164-3.852-0.494-5.66-0.915c-1.808-0.412-3.555-0.91-5.259-1.483c-3.431-1.142-6.616-2.475-9.86-4.172l2.536-6.73
								c6.216,1.175,12.897,2.268,18.502,1.925c1.375-0.082,2.66-0.321,3.623-0.622c0.971-0.301,1.513-0.749,1.472-0.888
								c-0.008-0.08-0.06-0.048-0.085-0.096c-0.027-0.052-0.031-0.109,0.024-0.627c0.073-0.867,0.006-2.073-0.195-3.355
								c-0.394-2.59-1.208-5.496-2.233-8.375c-1.023-2.894-2.208-5.825-3.526-8.729c-1.28-2.922-2.714-5.812-4.144-8.712
								c-0.724-1.446-1.467-2.885-2.228-4.311l-2.261-4.187L308.669,198.025z"/>
							<g>
								<path style="fill:#263238;" d="M303.984,191.313c-9.669-1.47-14.414,6.819-9.867,19.198
									c4.547,12.378,8.824,19.334,8.824,19.334l20.826-9.136C320.035,208.46,313.884,192.818,303.984,191.313z"/>
							</g>
							<path style="fill:#FFB573;" d="M281.844,242.386l-4.467,1.345l6.329,8.989c0,0,9.386-3.361,7.464-7.441l-2.359-1.343
								C286.789,242.783,284.233,241.567,281.844,242.386z"/>
							<polygon style="fill:#FFB573;" points="273.432,249.927 277.899,254.393 283.706,252.72 277.377,243.731 							"/>
						</g>
					</g>
				</g>
			</g>
		</g>
		<g>
			<ellipse style="fill:#FFFFFF;" cx="283.179" cy="171.012" rx="1.436" ry="1.74"/>
			<polygon style="fill:#FFFFFF;" points="284.373,175.612 283.539,175.584 283.028,171.573 284.615,171.217 			"/>
			<path style="fill:#FFFFFF;" d="M290.115,251.197c-3.034,0-5.66-0.442-7.278-1.902c-1.155-1.042-1.741-2.559-1.741-4.508
				c0-4.816,1-8.723,1.882-12.168c1.396-5.449,2.497-9.753-0.846-15.056c-5.316-8.434-3.734-20.225-0.014-27.61
				c2.851-5.655,1.882-11.914,1.518-14.27c-0.048-0.308-0.084-0.545-0.101-0.701c-0.016-0.159,0.1-0.3,0.258-0.316
				c0.153-0.009,0.3,0.1,0.316,0.258c0.015,0.15,0.05,0.378,0.096,0.672c0.372,2.406,1.361,8.798-1.571,14.618
				c-3.65,7.245-5.212,18.799-0.014,27.044c3.475,5.512,2.289,10.143,0.916,15.505c-0.874,3.413-1.864,7.281-1.864,12.025
				c0,1.805,0.507,3.139,1.551,4.08c2.693,2.43,8.655,1.813,14.422,1.218c2.577-0.267,5.242-0.542,7.594-0.542
				c0.159,0,0.288,0.129,0.288,0.288c0,0.159-0.129,0.288-0.288,0.288c-2.322,0-4.972,0.275-7.534,0.539
				C295.116,250.926,292.491,251.197,290.115,251.197z"/>
			<path style="fill:#FFFFFF;" d="M317.221,249.062h-11.383c-0.332,0-0.6,0.269-0.6,0.6v0.801c0,0.332,0.269,0.6,0.6,0.6h11.383
				c0.332,0,0.6-0.269,0.6-0.6v-0.801C317.822,249.331,317.553,249.062,317.221,249.062z"/>
		</g>
	</g>
</g>
<g id="Desk">
	<g>
		<g>
			<g>
				<path style="fill:#407BFF;" d="M388.639,257.724H111.361c-1.832,0-3.33-1.499-3.33-3.33l0,0c0-1.831,1.498-3.33,3.33-3.33
					h277.278c1.832,0,3.33,1.498,3.33,3.33l0,0C391.969,256.225,390.471,257.724,388.639,257.724z"/>
				<path style="opacity:0.3;fill:#263238;" d="M388.639,257.724h-64.911c-1.831,0-3.33-1.499-3.33-3.33l0,0
					c0-1.831,1.499-3.33,3.33-3.33h64.911c1.832,0,3.33,1.498,3.33,3.33l0,0C391.969,256.225,390.471,257.724,388.639,257.724z"/>
			</g>
			<g>
				<g>
					<polygon style="fill:#263238;" points="385.582,414.622 391.969,414.622 384.617,257.724 375.78,257.724 					"/>
					<polygon style="opacity:0.1;fill:#FFFFFF;" points="385.582,414.622 391.969,414.622 384.617,257.724 375.78,257.724 					"/>
				</g>
				<g>
					<polygon style="fill:#263238;" points="326.785,414.622 320.398,414.622 327.75,257.724 336.588,257.724 					"/>
					<polygon style="opacity:0.2;fill:#FFFFFF;" points="326.785,414.622 320.398,414.622 327.75,257.724 336.588,257.724 					"/>
				</g>
				<g>
					<polygon style="fill:#263238;" points="173.215,414.622 179.602,414.622 172.25,257.724 163.412,257.724 					"/>
					<polygon style="opacity:0.1;fill:#FFFFFF;" points="173.215,414.622 179.602,414.622 172.25,257.724 163.412,257.724 					"/>
				</g>
				<g>
					<polygon style="fill:#263238;" points="114.418,414.622 108.031,414.622 115.383,257.724 124.22,257.724 					"/>
					<polygon style="opacity:0.2;fill:#FFFFFF;" points="114.418,414.622 108.031,414.622 115.383,257.724 124.22,257.724 					"/>
				</g>
				<g>
					<rect x="117.245" y="266.07" style="fill:#263238;" width="213.253" height="13.149"/>
					<rect x="117.245" y="266.07" style="opacity:0.2;fill:#FFFFFF;" width="213.253" height="13.149"/>
				</g>
			</g>
		</g>
		<g>
			<g>
				<path style="fill:#407BFF;" d="M152.329,242.215c-0.772,0-1.399,0.626-1.399,1.399v6.051c0,0.772,0.626,1.399,1.399,1.399
					h45.353c0.252,0,0.456-0.204,0.456-0.456v-7.937c0-0.252-0.204-0.456-0.456-0.456H152.329z"/>
				<path style="opacity:0.9;fill:#FFFFFF;" d="M198.138,243.058h-18.967c-0.446,0-0.807,0.362-0.807,0.807v5.547
					c0,0.446,0.361,0.807,0.807,0.807h18.967V243.058z"/>
				<g>
					<path style="fill:#407BFF;" d="M176.044,242.215h-45.809c-0.772,0-1.399,0.626-1.399,1.399v6.051
						c0,0.772,0.626,1.399,1.399,1.399h45.809c0.772,0,1.399-0.626,1.399-1.399v-6.051
						C177.443,242.842,176.816,242.215,176.044,242.215z"/>
					<path style="opacity:0.2;" d="M176.044,242.215h-45.809c-0.772,0-1.399,0.626-1.399,1.399v6.051
						c0,0.772,0.626,1.399,1.399,1.399h45.809c0.772,0,1.399-0.626,1.399-1.399v-6.051
						C177.443,242.842,176.816,242.215,176.044,242.215z"/>
					<path style="opacity:0.5;fill:#407BFF;" d="M153.514,242.215h-6.944c-0.315,0-0.57,0.255-0.57,0.57v7.707
						c0,0.315,0.255,0.571,0.57,0.571h6.944c0.315,0,0.57-0.256,0.57-0.571v-7.707C154.084,242.471,153.829,242.215,153.514,242.215
						z"/>
					<path style="opacity:0.5;fill:#407BFF;" d="M163.552,242.215h-6.944c-0.315,0-0.57,0.255-0.57,0.57v7.707
						c0,0.315,0.255,0.571,0.57,0.571h6.944c0.315,0,0.57-0.256,0.57-0.571v-7.707C164.122,242.471,163.867,242.215,163.552,242.215
						z"/>
				</g>
			</g>
			<g>
				<path style="fill:#407BFF;" d="M144.128,231.324c-0.773,0-1.399,0.626-1.399,1.399v8.094c0,0.773,0.626,1.399,1.399,1.399
					h49.129c0.252,0,0.456-0.204,0.456-0.456v-9.98c0-0.252-0.204-0.456-0.456-0.456H144.128z"/>
				<path style="opacity:0.9;fill:#FFFFFF;" d="M193.712,232.167H170.97c-0.446,0-0.807,0.361-0.807,0.807v7.591
					c0,0.446,0.362,0.807,0.807,0.807h22.743V232.167z"/>
				<g>
					<path style="fill:#407BFF;" d="M167.843,231.324h-38.524c-0.773,0-1.399,0.626-1.399,1.399v8.094
						c0,0.772,0.626,1.399,1.399,1.399h38.524c0.772,0,1.399-0.626,1.399-1.399v-8.094
						C169.242,231.95,168.615,231.324,167.843,231.324z"/>
					<path style="opacity:0.2;fill:#FFFFFF;" d="M167.843,231.324h-38.524c-0.773,0-1.399,0.626-1.399,1.399v8.094
						c0,0.772,0.626,1.399,1.399,1.399h38.524c0.772,0,1.399-0.626,1.399-1.399v-8.094
						C169.242,231.95,168.615,231.324,167.843,231.324z"/>
					<path style="opacity:0.6;fill:#407BFF;" d="M164.231,233.484h-28.206c-0.471,0-0.852,0.382-0.852,0.852v4.866
						c0,0.471,0.382,0.852,0.852,0.852h28.206c0.471,0,0.852-0.382,0.852-0.852v-4.866
						C165.083,233.866,164.701,233.484,164.231,233.484z"/>
				</g>
			</g>
			<g>
				<path style="fill:#407BFF;" d="M158.542,226.106c-0.772,0-1.399,0.369-1.399,0.825v3.568c0,0.456,0.626,0.825,1.399,0.825
					h45.353c0.252,0,0.456-0.12,0.456-0.269v-4.68c0-0.148-0.204-0.269-0.456-0.269H158.542z"/>
				<path style="opacity:0.9;fill:#FFFFFF;" d="M204.351,226.604h-19.154c-0.342,0-0.62,0.277-0.62,0.62v2.983
					c0,0.342,0.278,0.62,0.62,0.62h19.154V226.604z"/>
				<g>
					<path style="fill:#407BFF;" d="M182.581,226.106h-46.458c-0.593,0-1.074,0.481-1.074,1.074v3.069
						c0,0.593,0.481,1.074,1.074,1.074h46.458c0.593,0,1.074-0.481,1.074-1.074v-3.069
						C183.656,226.587,183.175,226.106,182.581,226.106z"/>
					<path style="opacity:0.2;" d="M182.581,226.106h-46.458c-0.593,0-1.074,0.481-1.074,1.074v3.069
						c0,0.593,0.481,1.074,1.074,1.074h46.458c0.593,0,1.074-0.481,1.074-1.074v-3.069
						C183.656,226.587,183.175,226.106,182.581,226.106z"/>
					<path style="opacity:0.5;fill:#407BFF;" d="M141.962,226.106h-1.451c-0.116,0-0.211,0.094-0.211,0.211v4.796
						c0,0.116,0.094,0.211,0.211,0.211h1.451c0.116,0,0.211-0.094,0.211-0.211v-4.796
						C142.173,226.201,142.078,226.106,141.962,226.106z"/>
					<path style="opacity:0.5;fill:#407BFF;" d="M179.684,226.106h-1.424c-0.115,0-0.209,0.094-0.209,0.209v4.799
						c0,0.115,0.094,0.209,0.209,0.209h1.424c0.116,0,0.209-0.094,0.209-0.209v-4.799C179.893,226.2,179.8,226.106,179.684,226.106z
						"/>
				</g>
			</g>
			<g>
				<path style="fill:#407BFF;" d="M150.341,218.567c-0.773,0-1.399,0.369-1.399,0.825v5.89c0,0.456,0.626,0.825,1.399,0.825h49.129
					c0.252,0,0.456-0.12,0.456-0.269v-7.002c0-0.148-0.204-0.269-0.456-0.269H150.341z"/>
				<path style="opacity:0.9;fill:#FFFFFF;" d="M199.925,219.064h-22.93c-0.342,0-0.62,0.277-0.62,0.62v5.306
					c0,0.342,0.278,0.62,0.62,0.62h22.93V219.064z"/>
				<g>
					<path style="fill:#407BFF;" d="M174.381,218.567h-39.174c-0.593,0-1.074,0.481-1.074,1.074v5.391
						c0,0.593,0.481,1.074,1.074,1.074h39.174c0.593,0,1.074-0.481,1.074-1.074v-5.391
						C175.455,219.048,174.974,218.567,174.381,218.567z"/>
					<path style="opacity:0.1;" d="M174.381,218.567h-39.174c-0.593,0-1.074,0.481-1.074,1.074v5.391
						c0,0.593,0.481,1.074,1.074,1.074h39.174c0.593,0,1.074-0.481,1.074-1.074v-5.391
						C175.455,219.048,174.974,218.567,174.381,218.567z"/>
				</g>
			</g>
		</g>
		<path style="fill:#FFFFFF;" d="M259.919,249.398h-41.274c-0.458,0-0.833,0.375-0.833,0.832l0,0c0,0.458,0.375,0.833,0.833,0.833
			h41.274c0.458,0,0.832-0.375,0.832-0.833l0,0C260.752,249.773,260.377,249.398,259.919,249.398z"/>
		<g>
			<polygon style="fill:#263238;" points="340.66,247.419 367.779,247.419 370.23,250.966 338.21,250.966 			"/>
			<path d="M382.539,186.833c0,2.015-1.633,3.648-3.648,3.648c-2.015,0-3.648-1.633-3.648-3.648c0-2.015,1.633-3.648,3.648-3.648
				C380.906,183.185,382.539,184.818,382.539,186.833z"/>
			<path style="fill:#263238;" d="M355.116,249.819c-0.149,0-0.301-0.029-0.447-0.092c-0.587-0.247-0.861-0.924-0.613-1.51
				l26.128-61.833c0.247-0.587,0.921-0.864,1.51-0.613c0.587,0.247,0.861,0.924,0.613,1.51l-26.128,61.833
				C355.992,249.555,355.566,249.819,355.116,249.819z"/>
			<path style="fill:#263238;" d="M381.243,187.985c-0.24,0-0.483-0.074-0.69-0.229l-47.455-35.571
				c-0.51-0.383-0.613-1.105-0.23-1.614c0.38-0.509,1.103-0.613,1.613-0.231l47.455,35.572c0.51,0.382,0.613,1.104,0.23,1.613
				C381.941,187.826,381.594,187.985,381.243,187.985z"/>
			<path style="fill:#263238;" d="M384.893,186.833c0,2.015-1.634,3.648-3.648,3.648s-3.648-1.633-3.648-3.648
				c0-2.015,1.633-3.648,3.648-3.648S384.893,184.818,384.893,186.833z"/>
			<g>
				<circle style="fill:#263238;" cx="333.79" cy="151.261" r="3.64"/>
				<g>
					<path style="fill:#407BFF;" d="M328.688,167.896c-3.185,3.185-8.348,3.185-11.533,0c-3.185-3.185-3.185-8.349,0-11.533
						c3.185-3.185,8.349-3.185,11.533,0C331.873,159.547,331.873,164.711,328.688,167.896z"/>
					<path style="opacity:0.7;fill:#FFFFFF;" d="M328.688,167.896c-3.185,3.185-8.348,3.185-11.533,0
						c-3.185-3.185-3.185-8.349,0-11.533c3.185-3.185,8.349-3.185,11.533,0C331.873,159.547,331.873,164.711,328.688,167.896z"/>
				</g>
				<path style="fill:#263238;" d="M333.79,151.261c-6.828-6.828-17.897-6.827-24.724,0l24.724,24.724
					C340.617,169.158,340.617,158.089,333.79,151.261z"/>
			</g>
		</g>
		<g style="opacity:0.2;">
			<polygon style="fill:#407BFF;" points="309.065,151.262 205.236,251.064 311.748,251.064 333.79,175.986 			"/>
			<polygon style="opacity:0.7;fill:#FFFFFF;" points="309.065,151.262 205.236,251.064 311.748,251.064 333.79,175.986 			"/>
		</g>
	</g>
</g>
</svg>
